<svg xmlns="http://www.w3.org/2000/svg" width="186" height="102" fill="none"><mask id="a" width="186" height="102" x="0" y="0" maskUnits="userSpaceOnUse" style="mask-type:luminance"><path fill="#fff" d="M0 0h185.911v101.948H0V0Z"/></mask><g mask="url(#a)"><path fill="#000" d="M135.547.135c-.068.068-.203.136-.547.136-.339 0-.542.068-.542.203s-.338.276-.948.547c-.614.27-1.021.338-1.224.27-.203-.067-.338-.067-.338 0 0 .068-.276.136-.818.136-.542 0-.812.073-.812.14 0 .068-.276.068-.75.068s-.745 0-.813.068c-.068.068-.208.068-.276 0-.135-.068-.271-.068-.406-.068a.897.897 0 0 0-.406.339c-.136.208-.271.276-.407.276h-.203v-.276c-.068.068-.14.068-.208.135-.068 0-.136.073-.203.141v-.276.276c-.068-.068-.136-.068-.203-.14-.068-.068-.136-.136-.204-.136 0 .068-.067.135-.067.208-.068.136-.203.203-.474.203-.271 0-.412.068-.547.204-.068.135-.271.203-.542.27-.271 0-.474.073-.474.141v.135c-.067 0-.067-.067-.135-.067s-.136 0-.136-.068v.135c0 .068-.135.136-.343.204-.271.067-.339.203-.339.343 0 .068.068.136.068.203-.068 0-.068-.067-.136-.067-.067-.068-.203-.068-.474-.068-.203.068-.338.068-.406.135-.067.068-.135.068-.276.068-.068 0-.203-.068-.271-.068 0 .068 0 .068.068.136 0 .068.068.068.068.135-.136.068-.271.068-.339.136-.271.067-.338.14-.338.208v.135c-.068 0-.068 0-.068-.067-.068-.068-.068-.136-.068-.209 0-.067 0-.135.068-.135-.068 0-.135.068-.203.068-.136.067-.203.14-.203.276 0 .135-.136.203-.412.27-.271.068-.474.136-.541.344-.068.203-.204.203-.271.203 0 0-.068 0-.068-.067v.271h-.271V6h-.276a.616.616 0 0 0-.474.203c-.135.136-.406.203-.745.339-.338.073-.546.208-.546.276 0 .067-.204.203-.407.27-.203.068-.338.136-.406.209-.068.068-.135.203-.338.203-.204.068-.271.135-.271.203v.136c-.073-.068-.073-.068-.073-.136-.068-.068-.339 0-.745.271-.474.208-.745.344-.813.276-.072 0-.14-.068-.14-.135 0 .067.068.203.068.27 0 .068.072.204.072.271-.072 0-.072 0-.14-.067-.068-.068-.136-.068-.136-.068 0 .068-.067.135-.067.203-.068.14-.203.276-.474.411-.271.136-.406.271-.406.412v.203c-.068-.068-.068-.135-.136-.135s-.068-.141-.068-.141v.276h-.203v-.276c-.073 0-.14.073-.208.14-.135.068-.203.204-.135.271 0 .068 0 .136.067.204-.135 0-.203 0-.271.067-.203.073-.338.14-.406.276-.068.068-.068.203-.068.271-.067 0-.067 0-.135-.068l-.068-.067v.135c0 .136-.067.203-.271.276a.53.53 0 0 0-.276.136c.068 0 .068.067.068.067.073.068.073.068.141.136-.141.067-.209.135-.344.135a1.268 1.268 0 0 0-.474.547c-.135.27-.271.412-.542.48a1.33 1.33 0 0 0-.614.338c-.136.135-.339.547-.542 1.02-.203.48-.406.824-.542.959-.135.135-.203.338-.276.547-.067.203-.067.338-.135.338s-.135.068-.203.271c-.068.209-.203.276-.339.276h-.203v.406c-.067-.067-.135-.067-.135-.135s-.068-.068-.136-.135c0 .067.068.135.068.203 0 .135 0 .203-.068.276-.067.067-.203.067-.27.067-.068 0-.136-.067-.209-.067 0 .067.073.203.073.27 0 .068 0 .204.068.271h-.141c-.067 0-.203.068-.203.209 0 .135-.068.203-.135.203h-.136c0 .068.068.135.068.135 0 .068 0 .068.068.136h-.271v.546c-.068 0-.068-.067-.136-.067-.067 0-.338.203-.812.75-.479.547-.682.885-.615.953.068.135 0 .276-.135.48-.203.202-.271.478-.203.817 0 .203.068.338.068.547l-.068-.068c-.068 0-.068-.068-.068-.068a1.25 1.25 0 0 0-.135.474c-.068.276-.203.48-.339.547-.068 0-.135 0-.208.068.073.068.073.068.073.135.067.068 0 .276-.209.683a4.378 4.378 0 0 0-.406 1.229c-.068.474-.203.682-.271.75-.135.067-.338.27-.541.614-.203.339-.276.615-.276.818 0 .203 0 .339-.136.339-.068 0-.203.208-.203.614 0 .344-.068.547-.135.547h-.136v.271s-.067 0-.067-.068c0-.067-.068-.067-.068-.067-.068.343-.136.614-.136.953 0 .343-.067.682-.135.958l-.068-.068c-.067 0-.203 0-.27.136-.136.135-.204.27-.136.338.068.136 0 .209-.14.344-.136.135-.204.27-.204.406v.209c-.067 0-.135-.073-.135-.073-.068-.068-.203 0-.271.072-.068.068-.068.136-.068.204 0 .067.068.135.204.135.067 0 .135 0 .203.068-.068.067-.136.067-.203.135-.136.068-.204.276-.271.75-.068.412-.136.682-.271.89-.136.204-.136.34-.068.475l.136.135c-.068 0-.068 0-.136.068-.068.073-.135.14-.068.276.068.135 0 .203-.067.27-.068.068-.068.48-.068 1.298 0 .885 0 1.297-.068 1.297-.067.067-.203.067-.343.067h-.271c.067-.068.067-.068.067-.135.068-.068.068-.068.136-.068a.927.927 0 0 0-.474-.14c-.271-.068-.88-.136-1.698-.068-.406.067-.813.067-1.224.067v-.067c0-.068-.474-.136-1.36-.136-.88 0-1.286-.067-1.286-.203v-.135h-.276c-.203 0-.542.135-1.015.338-.474.271-.75.344-.886.344-.068 0-.135-.073-.135-.073.067.073.067.073.067.14.068.069.068.069.136.069h-.136c-.067 0-.27.135-.609.338-.27.203-.542.344-.682.344h-.204c0-.209.068-.344.068-.547 0-.344 0-.615-.067-.75-.068-.203-.136-.27-.271-.27-.068 0-.068-.074-.136-.074.068-.068.068-.135.136-.135.135-.068.135-.203.067-.271-.067-.068-.067-.136-.135-.136 0 .068-.068.068-.068.136l-.067.068c-.068 0-.068-.068-.136-.068-.067-.068-.067-.136-.067-.276 0-.068.067-.203.067-.271h-.135c-.136 0-.203-.135-.271-.406-.135-.276-.203-.412-.339-.412-.072 0-.208-.203-.276-.614-.067-.407-.135-.615-.203-.683-.067-.067-.067-.203-.067-.406.067-.276 0-.411-.136-.411-.135 0-.203-.136-.203-.271a.532.532 0 0 0-.136-.344c-.067-.135-.135-.27-.067-.406 0-.068.067-.208.067-.276h-.067c-.068 0-.136-.203-.271-.682-.135-.474-.27-.683-.412-.683-.067 0-.203-.067-.27-.067.067 0 .067-.068.135-.136l.068-.067-.203-.204a.781.781 0 0 1-.203-.546c0-.271-.068-.547-.271-.886-.203-.344-.271-.614-.271-.885 0-.276-.068-.412-.203-.412-.136-.067-.203-.067-.203-.135v-.136h.271c-.068 0-.204-.067-.271-.067-.209 0-.276-.344-.344-.891-.068-.542-.203-.885-.339-1.088l-.27-.271c.067-.073.067-.141.135-.141l.135-.135c-.067-.068-.135-.068-.203-.136-.135-.067-.203-.135-.203-.27 0-.141-.068-.209-.135-.209-.136 0-.136-.068-.136-.203 0-.136-.135-.271-.344-.547-.27-.203-.406-.338-.541-.338h-.135c0-.068.067-.068.067-.136.068-.068 0-.208-.203-.344-.203-.135-.27-.27-.27-.406 0-.14-.069-.208-.204-.208-.135-.068-.203-.136-.135-.339 0-.067.067-.203.067-.27-.067 0-.135.067-.203.067-.073 0-.14 0-.208.068 0-.068.068-.136.068-.136 0-.073.067-.14.067-.14-.067 0-.067 0-.067.067 0 .073-.068.073-.136.073v-.276c-.067 0-.067.068-.135.068s-.136.068-.136.068c0-.068.068-.136.068-.136 0-.067.068-.135.068-.135-.068 0-.203 0-.271-.068-.203-.067-.27-.135-.339-.27 0-.209-.067-.277-.203-.277h-.135c0-.067.068-.135.068-.135 0-.068.067-.068.067-.136h-.067c-.068 0-.203-.276-.339-.885-.208-.547-.344-.958-.547-1.094-.203-.135-.27-.27-.27-.338 0-.073-.204-.276-.61-.48-.412-.203-.682-.41-.75-.682a1.066 1.066 0 0 0-.406-.547c-.203-.067-.203-.203-.203-.27 0 0 0-.068.067-.068h-.27v-.412h-.136c-.068 0-.208-.067-.208-.203-.068-.135-.136-.27-.339-.344-.203-.067-.27-.135-.406-.135-.068 0-.135.068-.135.068l.135-.136c.068-.067.068-.135.068-.27 0-.136-.136-.136-.271-.136h-.203s0 .068.067.068c0 .068.068.068.068.135-.068 0-.203 0-.27-.067-.069-.068-.204-.068-.272-.068 0-.068.068-.068.068-.136.068-.072.068-.14.135-.14h-.203c-.14 0-.208-.068-.276-.203-.067-.136-.135-.203-.27-.203h-.204l.136-.136c0-.067.067-.067.135-.14l-.135-.136c-.068-.135-.203-.135-.271-.135l-.068.067c0-.067 0-.135.068-.203.068-.067.068-.135.068-.203-.068.068-.068.136-.136.136-.067.067-.135.067-.135.135-.068-.068-.068-.135-.135-.135-.068-.136-.136-.136-.204-.136-.067 0-.135 0-.276-.14a.615.615 0 0 0-.474-.204c-.203 0-.27-.067-.27-.135s-.136-.135-.475-.203c-.27-.068-.479-.14-.479-.276s-.135-.203-.406-.203c-.27 0-.474-.203-.61-.412-.067-.135-.135-.203-.202-.338-.068.067-.136.067-.136.135-.14.068-.276 0-.547-.135-.27-.136-.474-.271-.677-.271h-.27v-.276h-.276v-.136c0-.135-.068-.203-.272-.411a1.563 1.563 0 0 0-.473-.339c-.136-.067-.271-.067-.474-.067-.068 0-.203 0-.271.067 0-.067.068-.135.068-.203 0-.067 0-.135.067-.208-.067 0-.135-.068-.203-.068-.073 0-.14 0-.208-.067v.275h-.136c-.067 0-.135-.067-.203-.208 0-.067-.067-.135-.067-.203 0 .068-.068.136-.068.136 0 .067 0 .135-.068.135-.203-.135-.406-.203-.542-.339a1.835 1.835 0 0 0-.885-.27c-.135 0-.203.067-.339.067 0-.067.068-.135.068-.135 0-.073 0-.073.068-.14h-.203c-.136 0-.339-.068-.542-.272-.208-.203-.547-.27-.818-.27-.338-.068-.474-.141-.541-.276-.068-.136-.203-.204-.547-.204h-.406v-.411c-.068.068-.136.14-.203.14-.068.068-.136.136-.204.136 0-.068-.067-.068-.067-.135 0-.073 0-.141-.068-.141v.276l-.136-.135c0-.073-.067-.073-.135-.141 0 .068 0 .068-.068.14-.067.068-.135.136-.276.136-.135 0-.338-.068-.406-.276-.068-.203-.203-.27-.339-.339-.135 0-.27 0-.473.068-.068 0-.203.068-.271.068v-.203c-.276 0-.547 0-.818.067-.542.068-.813 0-.885-.067-.068-.068-.542-.136-1.63-.203-1.084-.073-1.558-.141-1.63-.276 0-.136-.204-.204-.475-.271-.27-.068-.406-.136-.474-.276-.067-.136-.27-.203-.682-.203-.203 0-.406-.068-.61-.068 0 0 .068-.068.068-.136l.068-.067c-.068 0-.068.067-.135.067-.068.068-.203.068-.271.068-.136-.068-.339 0-.542.203-.208.209-.344.209-.479.136-.136-.068-.203-.068-.27 0-.069 0-.136.073-.136.073l.135.135.136.135c-.068 0-.136-.067-.136-.067-.135 0-.203 0-.27.067-.068.068-.136.136-.204.136h-.135c0-.068.068-.136.068-.136 0-.067 0-.067.067-.135-.068 0-.203 0-.27-.068-.068-.067-.204-.067-.277-.067 0 .067.073.135.073.135.068.068 0 .203-.073.203-.067.068-.135 0-.27-.135-.136-.068-.136-.203-.136-.276l.068-.068H46.9c-.203 0-.406.068-.745.14-.344.068-.614.136-.75.068-.135-.067-.203-.067-.27.068-.068.068-.204.135-.407.068-.068 0-.203 0-.27-.068l.135.135.135.136h-.203c-.136 0-.276.068-.48.203-.202.14-.338.208-.473.14-.136-.072-.542-.072-1.157-.072-.609 0-.947.073-.947.14 0 .068-.407.068-1.157.068-.744 0-1.156 0-1.224.135-.067.136-.203.136-.474.136-.135 0-.203-.068-.338-.068 0 .068.068.203.068.271s0 .208.067.276c-.067 0-.067-.068-.135-.068-.068-.067-.203-.067-.27-.067-.136.067-.21.067-.21.135v.135h-.676v.271c0-.067-.068-.135-.068-.135 0-.068 0-.068-.068-.136 0 .068-.068.068-.068.136s-.406.068-1.088 0c-.339-.068-.745-.068-1.083-.136v.136c0 .135-.136.203-.412.276-.27.068-.406.203-.474.338 0 .068 0 .204-.068.271-.067 0-.135-.067-.203-.135-.067 0-.135-.068-.203-.068 0 .068-.067.203-.067.271 0 .073 0 .208-.068.276 0-.068-.068-.068-.068-.135 0-.068-.068-.068-.068-.141-.067.073-.135.14-.208.14-.135.136-.27.136-.406.136-.068 0-.136-.068-.203-.068 0 .068-.068.136-.068.203 0 .068 0 .136-.068.204 0-.068 0-.136-.067-.136 0-.068 0-.135-.068-.135-.068.067-.068.135-.136.135-.135.068-.203.136-.338.068-.068-.068-.203-.068-.344-.068-.067 0-.067 0-.135.068 0 .068 0 .068.067.135 0 0 0 .068.068.14h-.474c-.27 0-.474.069-.541.204-.068.068-.068.135-.136.203l-.135-.135-.136-.136c0 .068-.067.136-.067.136-.073.067-.141.135-.276.135h-.136s0 .068.068.136c0 0 0 .067.068.067-.068 0-.136 0-.204-.067-.135-.068-.27 0-.338.135 0 .073-.068.14-.136.208-.682-.067-.75-.135-.817-.135-.068-.073-.136-.14-.203-.14v.275h-.271v.136c0 .135-.203.203-.542.338-.338.14-.682.276-.817.547-.136.276-.34.276-.474.203-.068-.068-.136-.068-.204-.135 0 .067 0 .135-.067.208 0 .136 0 .203.067.271 0 0 .068.068.136.068h-.136c-.067 0-.203.067-.338.203-.068.135-.136.276-.068.344.068.067 0 .135-.135.27-.14.136-.276.204-.412.271-.135.073-.338.073-.541.073-.204 0-.474 0-.678.136-.208.135-.343.135-.546.135-.068 0-.136-.068-.204-.068 0 .068 0 .068.068.136 0 .067.068.067.068.135-.068.068-.203.068-.339.136-.203.072-.338.208-.474.411-.067.203-.203.27-.343.27-.068 0-.068-.067-.136-.067v.209c0 .135-.203.27-.541.473-.339.204-.542.277-.61.412-.067.135-.135.135-.276.135h-.203c0 .068.068.068.068.136 0 .067 0 .135-.203.276-.204.135-.271.27-.339.541a1.43 1.43 0 0 1-.27.48c-.069 0-.136.067-.204.067.068.068.068.136.136.136 0 .067.067.067.135.135-.136.068-.339.14-.474.209a3.39 3.39 0 0 1-.48.203c0 .067 0 .067.069.135 0 .068 0 .135-.136.203a.206.206 0 0 1-.27 0l-.068-.068a.527.527 0 0 1-.136.276c-.067.204-.203.271-.406.339s-.339.135-.339.276c0 .136-.073.27-.276.406s-.338.203-.474.203c-.135 0-.27 0-.338.068 0 0-.068.073-.136.073h.271c0 .068-.068.136-.068.136 0 .067-.135.135-.338.135s-.27.135-.344.27c0 .209-.203.48-.61.75-.405.345-.54.548-.54.615 0 .136 0 .203-.136.276-.068.068-.136.068-.203.136.067 0 .135.067.135.135.068 0 .135.068.135.068-.067 0-.135.068-.135.068-.068 0-.135.135-.135.203v.14h-.141c-.135 0-.203.136-.338.407-.136.27-.339.547-.678.75-.338.203-.541.479-.682.682-.135.203-.203.344-.338.411-.136.068-.204.136-.204.271v.136h-.135c-.135 0-.203.135-.27.479-.069.27-.136.474-.272.474h-.135v.546h-.14c-.068 0-.204.068-.204.277-.068.203-.135.27-.203.27s-.203.204-.27.547c-.136.339-.272.683-.542.954-.271.27-.48.41-.547.41h-.136c0 .069 0 .136.068.136.068.136 0 .204-.203.407-.203.208-.339.547-.542 1.026-.203.474-.27.75-.338.75s-.136.135-.203.338c0 .068-.068.203-.068.276 0-.073-.073-.073-.073-.14-.068 0-.068-.068-.068-.136-.067.136-.068.276-.135.344 0 .135-.068.203-.068.338l-.068-.067-.067-.068v.136c0 .135-.068.203-.136.203-.067 0-.067.072-.135.072.068.068.068.068.068.136.067.068.067.135.067.27 0 .136-.067.136-.203.136h-.135v.818h-.271v.411c0 .271-.068.48-.271.547-.208.068-.276.203-.276.542v.411c-.068 0-.135 0-.203-.067-.068-.068-.136-.068-.203-.068v.27c0 .204.067.277.135.277l.068.068c-.068 0-.136 0-.203.067-.136.068-.203.203-.271.542 0 .276-.068.479-.136.479H4.38c0-.068.068-.068.068-.135 0-.068 0-.068.067-.068-.067 0-.135.068-.203.068-.135.067-.203.067-.203.203 0 .067.068.208.136.208.067 0 .067 0 .135.068-.068 0-.135.068-.203.068s-.135.067-.203.067l.135.136c.068 0 .136.067.136.067l-.136.136c-.067.067-.135.276-.067.479.067.203 0 .338-.068.338s-.136.141-.136.276c0 .136-.073.271-.208.271-.068 0-.135.068-.203.068 0 .068.068.135.068.203 0 .14 0 .276-.068.547-.068.276-.27.344-.406.48-.136.135-.339.27-.407.614-.067.338-.135.541-.067.75 0 .135 0 .203.067.338h-.203c0 .136.068.276.068.412 0 .27 0 .474-.068.682-.135.203-.135.339-.067.542 0 .073.067.208.067.276-.067 0-.135.068-.203.068-.073 0-.14.067-.208.067.068.136.068.203.135.271.073.208 0 .411-.203.615a2.24 2.24 0 0 0-.542.885c-.135.411-.27.89-.203 1.573 0 .339.068.682.068 1.02H.984v.272h.271v.067c0 .073 0 .141-.068.276 0 .068 0 .068-.067.136-.068 0-.068-.068-.136-.068 0 0-.067 0-.067-.068v.271h.067c.068 0 .136.136.136.48.067.27 0 .546-.068.75-.068.203-.135.406-.068.614 0 .203 0 .339-.067.542-.068.073-.136.14-.136.208h.136v.135a.513.513 0 0 1-.136.271c-.068.136-.135.344-.068.682.068.344 0 .547-.135.75-.14.136-.276.547-.344 1.23-.067.682-.135 1.161-.067 1.364.067.203.067.474 0 .75-.068.271-.068.547-.068.683 0 .135.068.27.203.338.068 0 .135 0 .135.068-.067.068-.135.068-.203.135-.135.14-.203.209-.135.276 0 .068.135.068.338.068.068 0 .209-.068.276-.068-.067.136-.135.203-.135.339-.073.068-.073.208-.14.276.067 0 .14.068.208.068.135.067.27.135.338.27.068.136.068.276.068.412v.203H.78c0 .068 0 .135.068.203 0 .068.068.136.068.208H.713c0 .204.068.339.068.542 0 .208 0 .344.068.547H.646v.135c0 .068.067.209.135.209s.068.067.136.067c-.068.068-.068.204-.068.271-.068.203-.068.271.068.412.135.135.203.474.203 1.02 0 .615.067.954.135 1.021.068.141.135.209.068.276-.068.136-.068.203 0 .271 0 .068.067.068.067.136-.067 0-.067.067-.067.067-.068 0-.068.068-.136.068h.203c0 .073-.067.14-.067.208 0 .068 0 .136-.068.203l.068-.067.067-.068c0 .068 0 .068.068.135v.412c-.068.203 0 .338.068.406s.068.068.135.068l-.135.135c-.068.073-.068.209-.068.412v.338c.068-.067.068-.067.068-.135.068-.068.068-.068.135-.068-.067.136-.067.276-.135.48 0 .135-.068.27-.068.473h.203v.547c0 .344.068.547.136.547.135 0 .135.068.135.135v.136h-.271c.068.068.068.208.136.276.135.203.135.406.135.75-.068.27.068.542.276.885.203.339.271.615.271.953 0 .277.068.547.068.75.067.209.203.412.338.547.136.136.203.271.203.339 0 .14 0 .208.136.344l.203.203v-.406c.068.067.203.067.27.135.21.068.277.338.345.818 0 .411.067.682.203.682h.135v.338c0 .209.068.344.135.344.068 0 .204.203.204.406.067.209.135.412.338.615.203.209.271.344.271.547v.27s.068 0 .068-.067l.073-.068c0 .136.067.276.067.344 0 .271.068.406.203.474l.136.135s-.068 0-.068.074c-.068.067-.068.135 0 .27.068.136.203.271.271.271.135.068.203.14.203.209 0 .067.068.203.271.338s.27.203.338.135l.068-.067v.546c.068 0 .068-.067.14-.067.069 0 .069-.068.136-.068 0 .068 0 .203.068.271.068.203.135.344.338.48.204.135.271.27.204.338 0 .067 0 .067-.068.135.068 0 .068.068.135.068.068.073.203.208.339.411.135.271.203.547.27.818 0 .276.068.48.209.48.135 0 .203.067.203.202 0 .136.203.271.406.48.271.203.339.27.339.406 0 .067 0 .135-.068.135h.271c.203 0 .27.14.339.344 0 .135.067.27.067.338l.073-.067s.068 0 .068-.068c0 .068.068.208.068.276 0 .203.203.339.406.542.203.208.338.276.338.344l-.067.067h.203v.271h.135c.136 0 .203.068.203.208 0 .136.136.204.277.204.135 0 .27.067.338.203.135.135.27.203.542.27.27 0 .406.073.406.209v.135c.068 0 .068-.067.135-.067 0 0 .068-.068.141-.068v.068c0 .067.068.135.27.135.204 0 .272.068.272.203v.14h.406c0 .068 0 .068-.068.068 0 .068 0 .068-.068.136.068 0 .136.068.136.068.068.067.135.067.135.203v.135s.068-.068.136-.068c.067 0 .067-.067.067-.067v.203c0 .14.271.479.818 1.026.542.547.813.885.745.953 0 .068 0 .068-.068.068.068 0 .136 0 .136-.068.067-.068.27.135.546.411.271.271.474.407.542.407.136 0 .203 0 .339.135.135.14.27.208.474.276a.9.9 0 0 1 .546.474c.204.276.407.547.678.755.338.203.546.339.75.339.203.068.338.068.338.203 0 .068.136.208.406.276.271.068.407.203.407.27v.069h.953c0 .067 0 .067-.068.135 0 .068-.068.068-.068.068.068 0 .136.067.203.067.136.073.204.14.271.276 0 .068 0 .136.068.204l.068-.068c.067 0 .067-.068.135-.068 0 .068.068.136.136.203.072.136.276.203.546.203h.474v.209c0 .135.068.203.203.27.136.068.204 0 .271-.067 0-.068 0-.136.068-.136.208.136.344.271.547.339.406.208.677.344.88.344h.344c0 .067 0 .067-.073.067 0 .068 0 .068-.068.136h.48c.338 0 .541.135.744.344.203.27.474.406.75.406.136 0 .339.068.474.068 0 .067-.067.067-.067.135s0 .068-.068.14c.067-.072.203-.072.27-.072.204-.068.407-.068.678 0 .276.073.411.14.479.276 0 .067.135.203.338.27.203.068.407.209.542.344.136.136.48.271.818.271.338.068.541 0 .61-.068 0-.067.067-.067.067-.067 0 .067 0 .067.068.135.067.135.203.135.479.068.27-.068.406-.068.541.067.068.068.203.136.271.068s.271 0 .474.141c.136.135.615.271 1.427.474.818.203 1.224.276 1.224.344.068.067.136.067.339.067h.27v-.135h.547v.135c.068 0 .136-.067.136-.067.135-.068.203-.068.27 0 .069.067.204.067.475.067.203-.067.406 0 .479.136.068.135.203.203.541.27.136.068.271.068.407.068 0 .068 0 .068-.068.141l-.068.068c.204 0 .407.067.61.067.411.068.682 0 .75-.067.068-.068.135-.068.135-.068 0 .068-.068.068-.068.068s0 .067-.067.135h.135c.136 0 .271-.068.474-.203.203-.141.406-.209.547-.141.135.068.27 0 .406-.068.136-.135.271-.135.474-.067.136 0 .203.067.271.067v-.203h.547v-.203l.135.136c.068.067.068.067.136.067 0-.067.068-.067.135-.067.068-.068.203-.068.339 0 .203.067.406.067.75.067.338 0 .541-.067.677-.067l.135-.136v.203c.068 0 .203-.067.271-.067s.203-.068.27-.068v.203c0-.068 0-.135.069-.135.067-.068.14-.136.276-.136.135 0 .203.068.27.136.068.067.204.203.542.27.339.068.542.136.542.209 0 .068.068.068.068.068v-.209c.14 0 .276.068.411.068.27 0 .474-.068.61-.203.067-.068.135-.203.203-.271.067.068.135.068.135.135.135.136.479.136 1.156.136.677 0 1.089-.136 1.224-.339.203-.208.339-.276.474-.135.068.068.136.068.203.135l-.068-.067c0-.068 0-.141.136-.209.135-.068.338-.135.75-.135.203 0 .338-.068.541-.068 0-.068-.067-.068-.135-.135 0-.068-.068-.136-.068-.136.068 0 .068.068.136.068.135.068.203 0 .203-.068 0-.067.068-.067.068-.067 0 .067.067.067.135.067 0 .068.068.068.068.136v-.271h.135c.068 0 .209-.073.276-.209.136-.135.407-.203.948-.27.542-.068.953-.136 1.224-.276.271-.136.677-.203 1.156-.271.474-.068.88-.203 1.287-.406.411-.209.547-.412.547-.48 0-.067.203-.135.61-.27.405-.073.681-.209.817-.412.135-.203.27-.27.338-.203.068 0 .136.068.136.068 0-.068 0-.136.068-.204 0-.072.067-.14.067-.208.068 0 .136.068.136.068.067 0 .067 0 .135.068 0-.068-.068-.136-.068-.136 0-.067 0-.067-.067-.135.067 0 .135.068.203.068.067.067.135.067.203.067 0-.067.068-.135.068-.203 0-.135.276-.203.682-.27.406-.074.745-.141 1.083-.344.344-.204.683-.34 1.089-.34.406-.067.75-.14 1.088-.275.339-.135.542-.339.61-.542.135-.276.203-.343.338-.343.068 0 .136.067.209.067 0-.067.067-.135.067-.203s0-.135.068-.203H68.5c0-.068 0-.068.068-.068.073-.073.208-.14.479-.14.27-.068.406-.136.541-.271 0-.068.068-.203.068-.271 0 .068.068.068.068.135 0 .136.135.136.27.136.068 0 .136-.068.204-.068 0-.068 0-.135-.068-.203 0-.073-.068-.14-.068-.208h.276c.204 0 .339-.203.542-.542a3.59 3.59 0 0 1 .813-.958c.343-.203.682-.407.953-.407.27-.067.406-.135.406-.208v-.135h.547c0-.068-.068-.068-.068-.068 0-.068 0-.203.135-.271.136-.135.271-.208.407-.208h.203v-.203c0-.136.068-.271.203-.271.136-.068.203-.136.203-.276 0-.136.136-.271.406-.542.277-.276.547-.411.683-.48.135 0 .203-.067.338-.067 0-.067-.067-.135-.067-.135 0-.068.135-.276.406-.547.276-.271.479-.48.547-.75.067-.271.135-.412.27-.412.136 0 .204-.135.271-.338.068-.203.136-.412.271-.48.136-.067.203-.202.271-.405.068-.209.203-.344.344-.344.135 0 .27-.068.406-.271.135-.203.27-.271.338-.271.136 0 .204-.073.204-.208.067-.136 0-.271-.068-.339-.068 0-.068-.067-.136-.067h.542c0-.068 0-.068-.067-.136-.068-.073.067-.276.203-.547.208-.203.276-.411.208-.547-.068-.067 0-.203.135-.27.136-.068.271-.344.339-.683.068-.208.068-.344.135-.547l.136.136a.21.21 0 0 1 .068.135c.067-.068.135-.068.135-.135.068-.068.135-.203.068-.271 0-.068-.068-.135-.068-.203.068 0 .068.068.135.068.068 0 .068 0 .136.067 0-.067-.068-.067-.068-.135l-.068-.073c.068 0 .068-.068.136-.068.135-.068.27-.27.411-.75.136-.474.271-.682.406-.682.068 0 .204-.271.271-.75.068-.542.203-.818.271-.886.068-.067.136-.135.203-.135-.067 0-.067-.068-.135-.068s-.068-.067-.068-.067c.068-.068.068-.136.068-.136.068-.073.068-.208.068-.344 0-.067 0-.135-.068-.203.068 0 .068.068.135.068l.068.068c0-.068-.068-.068-.068-.136-.067-.135.068-.276.203-.411.068-.068.209-.203.276-.271-.067-.068-.14-.068-.208-.068-.068-.067-.135-.067-.203-.135.135-.068.27-.14.344-.209.27-.135.474-.338.609-.609.203-.276.27-.682.27-1.229 0-.276.069-.547.069-.818.067 0 .067.068.135.068l.068.068v-.203c0-.141.067-.276.27-.48.209-.203.277-.338.209-.479-.073-.135.068-.27.338-.541.271-.209.474-.412.542-.683a3.36 3.36 0 0 0 .27-.75c.069-.276.069-.614 0-1.026-.067-.474 0-.885.136-1.297.204-.406.204-.75.136-1.088-.068-.344-.068-.48.068-.547.067-.068.14-.136.067-.27-.067-.136 0-.345.14-.615.136-.271.204-.48.136-.683 0-.068 0-.203-.067-.27.067 0 .135 0 .203.067.067 0 .135.068.203.068-.068-.068-.068-.203-.136-.271-.067-.208-.067-.344.068-.411a.52.52 0 0 0 .136-.344v-.271c-.068 0-.068.068-.068.068s-.068.067-.136.067v-.067c0-.068.068-.136.136-.136.068-.067.068-.135.068-.27 0-.141 0-.277.135-.412l.203-.203-.135-.136c-.068 0-.136-.067-.136-.067.068-.073.136-.209.203-.276.136-.203.271-.474.406-.953.136-.412.204-.886.136-1.365-.068-.48 0-.75.14-.818.068-.067.136-.203.136-.411 0-.203.068-.339.135-.406.068-.068.136-.276.068-.547s-.068-.48.068-.547c.135-.068.135-.203.067-.339 0-.067-.067-.203-.067-.276h.406c.27 0 .406-.068.474-.135 0-.068.068-.136.068-.136l.135.136c.14.068.276.135.412.135a.732.732 0 0 0 .474-.203.615.615 0 0 1 .474-.203c.203 0 .411-.068.682-.276.27-.203.677-.27 1.219-.203.547.068.817 0 .885-.068.068-.068.135-.135.27-.135.136 0 .407.067.75.135.272.068.543.136.61.27.068.074.203.142.271.074.068-.073.203.068.542.27.276.204.479.272.682.204.203-.068.406 0 .61.276.203.203.478.338.682.338.203 0 .338.136.474.344.067.203.067.406 0 .474l-.136.136c.068.067.203.208.271.276.203.203.27.406.203.614a.67.67 0 0 0 .068.542c.068.14.068.208 0 .276 0 .068-.068.068-.068.135h.271l-.135.136c-.136.135-.136.203-.136.27 0 .073.068.141.068.141.068 0 .135-.068.135-.068.068 0 .068-.072.136-.072v.411c0 .27.067.547.208.75.136.203.203.339.136.48 0 .067-.068.067-.068.135.068 0 .068.067.135.067.136 0 .136.203.068.547-.068.339-.068.682.068 1.089.135.411.203.614.067.817-.067.209-.067.547 0 1.026.068.542.203.818.339.953.135.136.203.271.271.48 0 .203.203.338.406.541.276.209.344.344.276.48 0 .067 0 .135-.068.203h.136c.067 0 .203.14.27.343a.945.945 0 0 1 .136.75c0 .271.068.683.338 1.23.204.541.474.885.683 1.02.135.068.271.136.338.203l-.135.136s-.068.068-.136.14l.204.204c.135.135.203.27.135.338 0 .068-.068.068-.068.136.068 0 .068 0 .068-.068.068 0 .068-.068.135-.068v.412c0 .27.068.479.204.547.135.067.203.406.27.885.068.547.136.75.203.75.136 0 .204.068.204.27 0 .21.067.277.208.345.068 0 .203.203.203.406 0 .276.068.411.203.547l.136.135c0-.068.067-.068.067-.135l.068-.068c.068 0 .068.068.135.068.068 0 .068.067.068.067-.068.068-.068.136-.068.203-.067.141-.067.277.068.277l.136.135c0-.068.067-.135.067-.135s.068-.068.068-.136v.136c0 .135.068.203.203.27.136.068.203.203.203.412v.27h.209v.272c0 .208.067.343.203.479.135.135.203.27.067.344-.067.067-.067.135-.067.135h.406c-.068 0-.068.068-.068.068s-.067.067-.135.067c.068.068.068.136.135.136.068.067.136.135.271.067.068 0 .068-.067.135-.067 0 .067-.067.067-.067.067-.068.068-.068.203-.068.344.068.136.135.203.271.203.135 0 .203.068.271.136.067.067.14.135.276.135h.135c-.068 0-.068.068-.135.068-.068 0-.068.067-.068.067.068 0 .203.074.271.074.203 0 .271.135.338.338.068.203.204.412.339.547.135.135.271.338.271.474v.208h.135c.136 0 .209.136.276.406a.946.946 0 0 0 .271.48c.136.067.271.203.406.479.136.27.271.406.474.474.203.067.479.276.886.682.406.412.609.682.677.885.068.209.068.276.203.276.068 0 .208.068.276.271.068.203.406.412.948.547.542.203.885.339.953.547.135.203.271.339.542.474.271.135.474.344.609.682.208.276.276.412.412.412.067 0 .135-.068.135-.068 0 .068-.068.068-.068.136-.067.067 0 .203.068.27.068.068.135.068.271 0 .067-.067.203 0 .338.136.136.208.339.276.542.276h.344c-.068.068-.068.135-.136.135-.067.068-.135.203-.067.271.067.068.067.068.135.14.068-.072.068-.072.135-.14.068-.068.136-.068.136-.068l.203.412c.135.27.339.474.609.614.271.136.615.204 1.089.271.474.068.677.136.745.271.067.14.343.208.885.276.542.068.886.203 1.021.339.135.208.271.208.406.135.068-.068.136-.068.203-.068.068.068.068.209.136.276a.518.518 0 0 1 .135.271c.068-.067.068-.067.136-.067l.135-.136a.934.934 0 0 0 .203.27c.141.204.412.345.886.48.473.136.744.27.817.406.068.209.271.276.542.276.203.068.338.068.338.204v.135c.068 0 .136 0 .204-.068.135-.067.406.068.885.203.474.209.812.276 1.016.209.135 0 .203-.068.343-.068l-.067.068c0 .067 0 .067-.073.067.276 0 .547.068.75.068.541 0 .953.203 1.291.406.407.276.542.412.542.48 0 .067.068.135.271.135s.271 0 .338-.068c.068 0 .068-.067.068-.067v.067c0 .068.141.136.344.276.203.136.338.136.542.068.067-.068.135-.068.203-.14v.14c0 .068.067.203.203.27.135.069.271.136.479.069.203 0 .271 0 .271.135 0 .068.068.068.068.135.067 0 .067-.067.135-.067.068-.068.271-.068.677-.068.411.068.615 0 .75-.068.135-.067.203-.067.339.068a.515.515 0 0 0 .541.135c.203-.067.412 0 .412.073 0 .068.067.068.067.068.068-.068.204-.14.271-.208.203-.136.406-.203.61-.203h.27v-.271c.204.067.48.067.683.135.406.068.812.068 1.151.068.344 0 .547-.068.614-.068.068-.068.203-.068.339 0 .203.068.338.068.406 0l.136-.135v.135c0 .068.067.136.276.203a.746.746 0 0 0 .541 0c.203-.067.542 0 1.089.203.271.14.609.209.88.344v-.271l.135.136c.068.067.271.067.547.067.271 0 .61-.067.881-.276.27-.203.473-.203.541-.203.068.068.136 0 .276-.135.136-.136.339-.203.61-.271.27-.068.474 0 .541.068l.068.067.068-.067c0-.068.135-.068.276-.068.135 0 .338 0 .474.068.067.067.135.067.203.067 0 0 0-.067-.068-.067 0-.068-.068-.068-.068-.068h.407c.27 0 .474-.068.682-.14.203-.068.338-.136.542-.068.067 0 .203 0 .27.067v-.135c0-.068.136-.135.474-.203.271-.068.48-.136.48-.203v-.136h.406c.271 0 .474-.073.541-.14.068-.136.204-.136.407-.068.208.068.343.068.411 0 .068-.068.271-.068.542-.068.271.068.474 0 .542-.067 0-.068.067-.068.067-.136.068.068.068.068.141.136.068.067.068.067.135.067v-.067c0-.068.136-.136.407-.271.27-.136.406-.209.541-.344.068-.135.203-.203.406-.271a.62.62 0 0 0 .48-.203 4.41 4.41 0 0 1 .135-.14v.275h.542c0-.067-.068-.067-.068-.135 0-.073-.068-.14-.068-.14.136 0 .339-.068.474-.068.276-.068.479-.136.547-.203.068-.068.136-.136.271-.136s.203-.068.203-.203c.068-.14.271-.276.745-.344.479-.067.953-.203 1.292-.547.203-.135.406-.27.614-.406 0 .068.068.136.068.203 0 .068.068.136.068.203l.067-.067c.068-.068.136-.068.203-.068.068 0 .136.068.136.068v-.407h.406c.271 0 .474-.067.547-.208.068-.135.135-.203.271-.135.067 0 .135.067.135.067v-.406h.136c.067 0 .203-.068.203-.135.067-.073.135-.141.271-.073.135 0 .338 0 .541-.136.209-.135.344-.203.412-.135.067.068.203-.068.338-.271.203-.208.406-.344.677-.411.276-.068.412-.136.479-.271.068-.136.136-.203.339-.276.203-.068.406-.271.677-.61.271-.343.479-.479.615-.479.135 0 .27 0 .338-.135.068-.136.271-.209.406-.209h.271c0-.067 0-.067-.067-.067 0-.068.135-.271.546-.542.407-.344.678-.614.813-.89a1.25 1.25 0 0 1 .474-.542c.208-.068.344-.209.411-.48.068-.135.068-.203.136-.338l.068.068c.067.068.203-.068.27-.276.136-.271.271-.339.339-.271l.068.068c0-.068.067-.068.067-.136 0-.067.136-.203.271-.203.068 0 .136-.073.208-.073 0 0 0-.068-.072-.068 0-.067-.068-.067-.068-.067.068 0 .068 0 .14.067.068 0 .068.068.136.068 0-.068 0-.068.068-.135.067-.068.135-.136.338-.136a.614.614 0 0 0 .474-.203 1.11 1.11 0 0 1 .474-.276c.208-.068.276-.135.344-.27.068-.136.135-.272.271-.204.067 0 .067.068.135.068 0-.068 0-.203.068-.276.067-.203.203-.406.474-.61.271-.208.479-.479.547-.75.067-.343.27-.479.406-.479h.271v-.203c0-.14.135-.276.338-.411.271-.136.339-.271.339-.406v-.209h.276c0-.068 0-.068-.068-.135 0-.068 0-.339.136-.683.135-.338.27-.614.473-.75.204-.135.339-.406.542-.817.068-.203.203-.412.339-.615l.073.068s.067 0 .067.067c0-.067.068-.203.068-.27 0-.068 0-.203.068-.271.067 0 .067.068.135.068.068.067.203-.068.542-.344.271-.271.406-.542.474-.818 0-.27.067-.406.135-.406s.141-.14.209-.344c.067-.135.067-.203.067-.338.068 0 .068.067.136.067l.067.068v-.344c0-.27.068-.406.203-.541.136-.068.204-.276.204-.412 0-.135.067-.27.135-.27s.135-.068.135-.068c0-.073 0-.073-.067-.141 0-.068-.068-.068-.068-.136l.068.068c.067 0 .067.068.067.068v-.682h.136c.068 0 .203-.204.271-.677.067-.48.14-.683.276-.75.067 0 .067-.073.135-.073 0 .073-.068.073-.068.073-.067.067-.067.067-.067.135 0 0 .067 0 .067.068l.068.067c0-.067 0-.067.068-.135 0-.068 0-.068.068-.135.067 0 .067.067.067.067.068.068.136 0 .271-.067.136-.141.136-.209.068-.344 0-.068-.068-.136-.068-.203h.136c.067 0 .203-.136.27-.412.068-.27.136-.406.203-.406h.068v-.547c0-.344.068-.682.344-.953a1.52 1.52 0 0 0 .271-.89c-.068-.272 0-.542.067-.75.068-.204.136-.34.068-.475-.068-.067-.068-.208.068-.411.135-.203.203-.339.068-.547-.136-.203-.068-.27-.068-.339l.068-.067.067.068c.068 0 .068.067.068.067-.068-.068-.068-.135-.135-.203-.136-.135-.136-.344-.136-.547v-.338c.068.067.068.135.136.135l.135.136c0-.136-.068-.271-.068-.412-.067-.27-.067-.474.068-.542.068-.14.135-.343.135-.682v-.547h.136l-.068-.067c-.068 0-.068-.068-.068-.068l.068-.068c.068-.068.068-.276.068-.75v-.682h.135c0-.068-.067-.136-.067-.209 0-.067-.068-.135-.068-.203h.135v-.682c.068 0 .136.068.136.068.067 0 .067.068.135.068 0-.068-.068-.068-.068-.136-.067-.068-.067-.135-.067-.135l.067-.068c.068-.068.068-.135 0-.27-.067-.074-.067-.21-.067-.277.067 0 .067-.068.135-.068.141 0 .141-.27.141-.682-.073-.474-.073-.682-.141-.682-.068 0-.135-.136-.203-.339-.068-.276 0-.479.203-.682.208-.203.276-.411.208-.615 0-.135-.067-.203-.067-.338.067 0 .135.068.203.068.135 0 .271 0 .338-.068l.068-.073c-.068-.068-.203-.068-.271-.068-.067-.068-.203-.068-.271-.135.068-.068.136-.068.204-.136.135-.135.203-.203.27-.343 0-.136 0-.271-.067-.339-.068-.135-.068-.203-.068-.338.068-.141 0-.209-.068-.276-.067 0-.067-.204.068-.407.068-.14.135-.276.135-.343h-.067c-.068 0-.136-.339-.203-1.089-.068-.75-.136-1.094-.271-1.23-.141-.067-.141-.27-.141-.614.068-.27 0-.547-.068-.682-.067-.136-.135-.27-.067-.339.067-.067 0-.208-.136-.343a.527.527 0 0 1-.135-.542c0-.14 0-.208.068-.344h-.068c-.068 0-.136-.135-.136-.479 0-.27 0-.542.136-.75.135-.203.135-.406 0-.542-.068-.067-.136-.14-.203-.208.067-.068.135-.068.203-.135.068-.068.135-.136.203-.136-.068-.068-.135-.068-.203-.068-.136-.067-.203-.479-.136-1.161.068-.682 0-1.224-.135-1.568-.135-.338-.271-.547-.474-.682-.203-.135-.338-.27-.411-.474-.068-.208-.068-.411 0-.547.073-.068.073-.135.14-.203h-.276c0-.14.068-.276.068-.48 0-.27 0-.478-.068-.546-.068-.068-.135-.406-.135-.953 0-.547-.068-.886-.136-.953a.547.547 0 0 1-.135-.344c0-.135-.135-.27-.339-.48-.27-.202-.338-.405-.338-.676v-.344h-.136c-.067 0-.208-.203-.343-.547-.136-.338-.203-.541-.136-.682.068-.136 0-.203-.067-.203-.068 0-.068-.068-.136-.068l.136-.135c0-.068.067-.068.067-.136-.067-.068-.067-.068-.135-.14-.068-.068-.136-.204-.068-.339.068-.068.068-.203.136-.27-.068 0-.136 0-.136-.069-.068 0-.068-.072-.135-.072 0 0 0 .072.067.072 0 .068 0 .068.068.136h-.135c0-.068 0-.136.067-.208.068-.136-.067-.339-.27-.542-.204-.208-.271-.412-.204-.547.068-.135.068-.27.068-.344-.068-.067-.135-.067-.203-.067s-.068 0-.135.067c0-.067.067-.135.067-.203 0-.135-.067-.338-.27-.547-.209-.203-.344-.406-.344-.61v-.343h-.136l.068-.067c.068-.068.068-.068.068-.136-.068-.068-.136-.068-.203-.135-.136-.068-.203-.141-.136-.276.068-.136.068-.203 0-.271 0-.136-.067-.136-.203-.136-.135 0-.203-.135-.203-.411 0-.271-.068-.406-.203-.406h-.136v-.209c0-.135-.135-.338-.343-.541-.203-.209-.339-.412-.339-.547 0-.136-.068-.203-.135-.276-.068 0-.068-.068-.136-.068 0-.068.068-.135.068-.135 0-.136 0-.271-.068-.547-.135-.203-.203-.407-.338-.407-.136-.067-.203-.203-.271-.411 0-.27-.068-.338-.203-.338-.136 0-.276-.136-.412-.412-.203-.27-.27-.406-.338-.406s-.203-.209-.339-.547c-.135-.339-.271-.547-.338-.547-.068 0-.136-.135-.136-.27v-.204c-.067 0-.067.068-.135.068s-.141 0-.141.067c0-.135-.067-.208-.067-.343 0-.203-.136-.339-.271-.339h-.203v-.411c0-.271-.136-.474-.339-.683-.271-.203-.338-.27-.338-.406v-.135c-.068 0-.068 0-.136.067-.068 0-.135.068-.135.068v-.546h-.141c-.068 0-.271-.136-.406-.34-.136-.208-.271-.343-.406-.343-.068 0-.204-.135-.271-.406a.946.946 0 0 0-.271-.48c-.136 0-.276-.135-.344-.203-.068-.14-.068-.208 0-.276.068-.067.068-.067.068-.135-.068 0-.068-.068-.136-.068-.135 0-.135-.135-.135-.27 0-.141-.068-.209-.203-.277-.136-.067-.203-.203-.271-.27 0-.136-.203-.277-.406-.48-.271-.203-.339-.338-.339-.473v-.209h-.547c0-.068.068-.135.068-.203s0-.135.068-.203h-.339c-.203 0-.406-.068-.541-.276-.136-.203-.271-.339-.271-.406 0-.068-.068-.204-.276-.204-.203-.072-.271-.14-.271-.276v-.203l-.068.068s-.068 0-.068.068c0-.068 0-.136-.067-.136 0-.067 0-.135-.068-.135s-.068.068-.068.068l-.135.135c0-.068-.068-.135-.068-.203-.068-.14-.271-.276-.541-.412-.277-.135-.412-.27-.344-.338 0-.14 0-.209-.136-.276a.373.373 0 0 1-.203-.339c0-.135-.067-.276-.338-.547-.203-.203-.271-.338-.271-.411 0-.068.068-.068.068-.136h-.204c-.135 0-.343-.067-.614-.27-.271-.203-.406-.271-.474-.412-.068-.135-.068-.135-.203-.135h-.136v-.406c-.067 0-.135 0-.135.067-.068.068-.339-.135-.615-.479-.338-.338-.812-.547-1.427-.614-.677-.068-1.083-.271-1.354-.547-.276-.271-.411-.474-.344-.542 0-.068.068-.068.068-.135-.068 0-.068 0-.135.067-.068 0-.068.068-.136.068v-.614c-.067.067-.135.135-.203.135s-.135.135-.203.135c0-.067-.068-.203-.068-.27-.067-.204-.271-.344-.677-.48-.411-.135-.614-.27-.682-.338-.068-.136-.136-.136-.271-.136-.068 0-.135.068-.135.068.067-.068.067-.068.067-.135.068-.073.068-.141.136-.141-.068-.068-.136-.068-.136-.135-.067-.068-.203 0-.27.135-.068.068-.068.14-.136.208 0-.067 0-.14-.068-.208-.067-.135-.135-.203-.276-.203-.135 0-.27-.068-.474-.271-.203-.208-.338-.208-.474-.068-.067.068-.135.068-.203.136 0-.068-.067-.136-.067-.209-.068-.135-.204-.203-.48-.203h-.406v-.135c0-.068-.068-.136-.203-.136-.135-.067-.271 0-.338.068l-.136.136c0-.068 0-.068-.068-.136 0-.068-.067-.068-.067-.135.067 0 .067 0 .067-.068.068 0 .068-.068.136-.068-.068.068-.203.068-.271.136-.068.067-.203.067-.276.135 0-.068-.068-.135-.068-.135-.067-.136-.135-.136-.271-.136-.135.068-.27 0-.338-.14 0-.068-.068-.136-.068-.136l-.135.136c-.068 0-.068.067-.136.14v-.546c-.067 0-.203.067-.271.067-.067.068-.203.068-.27.136 0-.068.067-.136.067-.136.068-.135 0-.203-.14-.344-.136-.135-.271-.203-.542-.203h-.271v-.135c0-.068-.203-.203-.677-.203-.479-.068-.75 0-.885.135-.136.068-.271.136-.474.068-.068-.068-.203-.068-.271-.136 0 .068.068.136.068.136 0 .068 0 .135.067.135h-.203V2.25c-.073.068-.14.068-.208.135-.136.068-.271.068-.339-.067-.135-.14-.27-.14-.474-.14h-.27c0-.069.067-.136.067-.204 0-.068.068-.135.068-.203-.068 0-.203.068-.271.068-.208 0-.411 0-.547-.136-.135-.135-.609-.135-1.291-.135-.677.067-1.016 0-1.084-.068-.067-.073-.135-.073-.338-.073-.209.073-.276 0-.412-.068-.135-.067-.406-.067-.948-.067-.547 0-.885 0-1.088-.136-.203-.135-.271-.203-.271-.27V.75c-.068 0-.203.068-.271.068-.203.067-.271 0-.406-.068-.073-.14-.208-.14-.276-.073-.068.073-.406.073-.948-.068-.271-.067-.547-.135-.75-.135l.068.068c0 .067 0 .135-.136.208a.51.51 0 0 1-.271.135h-.135l.135-.135c.068-.073.068-.073.068-.14-.068 0-.068 0-.068-.068-.067-.068-.203 0-.27.135-.136.14-.271.208-.474.14-.068 0-.204 0-.276-.067.072-.073.072-.14.072-.14.068-.068.068-.136.136-.136-.068 0-.136-.068-.136-.068-.072-.067-.208-.067-.276.068l-.135.135c0-.067-.068-.135-.068-.203 0-.067-.067-.135-.067-.203-.068 0-.136.068-.204.068-.067 0-.135.068-.203.068V.068c-.067 0-.203.067-.27.067-.204 0-.271 0-.339-.067-.068 0-.068-.068-.141-.068-1.015.068-1.015.135-1.015.135Zm-.407 8.386c0 .068.068.068.068.135.068.068.203.068.542 0a1.56 1.56 0 0 1 1.088.14c.474.136.745.204.881.136.135-.067.203-.135.203-.208v-.135c.135.135.271.208.411.276.271.203.61.338.948.338.339 0 .542-.068.609-.135.073-.068.209-.068.344 0 .136.067.339.067.542-.068s.406-.135.542 0c.208.068.546.203 1.156.27a4.19 4.19 0 0 0 1.562.069c.407-.068.75-.068.818.067.068.14.271.209.474.209.068 0 .203.067.271.067v-.275c.068.067.203.208.271.275.203.203.338.271.547.271.203 0 .338.068.406.203.067.14.203.209.406.276.203.068.339.136.474.136.135 0 .203-.068.271-.136.073-.067.073-.135.14-.135 0 .068 0 .135.068.135.068.136.271.136.745.136.406 0 .75.067 1.021.27.203.209.474.209.677.141.135-.073.203-.14.271-.14v.276h.271c.208 0 .343.067.479.27.135.204.541.344 1.151.547.614.203 1.088.474 1.427.818.344.338.614.547.818.547.203 0 .406.068.473.135a.374.374 0 0 0 .339.203c.203 0 .276.136.276.204.068.14.339.276.948.546.542.277.953.48 1.089.75.135.277.27.344.406.344h.135v.136c0 .135.136.338.474.682.344.338.547.547.75.682.203.136.339.136.542.136s.271-.068.271-.136c0-.067.067-.067.067-.135.136.135.276.27.344.474.203.276.542.614.88.885.407.276.615.547.75.823.136.27.271.406.339.406s.271.136.406.344c.136.203.339.339.542.339.208 0 .344.203.547.547.203.338.338.614.541.817.203.203.271.339.271.547.068.203.136.406.339.542.208.208.343.411.479.75.135.343.338.682.677.89.406.271.615.542.682.75.068.204.203.339.406.474.204.068.407.344.61.683.203.411.338.547.547.479.067-.068.135-.068.203-.136 0 .136.068.204.068.339 0 .203.135.411.338.547.203.135.339.27.542.547.203.27.271.474.271.609 0 .14.067.208.14.276.136.068.203.339.339.75.135.406.271.75.541.953.271.203.339.48.339.683-.068.203 0 .479.068.682.067.203.135.343.203.343s.208.339.344 1.021c.135.683.27 1.021.406 1.021.068 0 .203.068.271.276.067.203.203.271.338.271a.69.69 0 0 1 .339.411c.073.271.073.542.073.954-.073.406.067.75.271 1.088.067.14.203.276.27.48l.068-.068.135-.136v.271c0 .203.068.344.204.48.135.135.203.405.203.952 0 .547.135.886.338 1.094.209.203.344.406.344.61 0 .208.068.41.135.546.136.136.136.276.068.412 0 .068-.068.135-.068.203.068 0 .068.068.136.068a.622.622 0 0 1 .203.479c0 .27 0 .547-.068.75-.067.203 0 .474.136.818.135.338.203.614.135.817 0 .203 0 .412.136.75.135.271.203.547.135.75 0 .203 0 .412.135.682.136.271.203.615.276 1.23 0 .614 0 .885-.073.953-.067.068-.067.27-.067.614 0 .339.067.615.14.75.068.136.204.407.204.886.067.479 0 .885-.136 1.364-.141.412-.141.75-.068 1.021.068.209.136.615.068 1.094-.068.547-.068.818 0 .885l.136.136c-.068 0-.136.068-.136.068-.068.067-.141.208-.141.479 0 .27 0 .411.073.479.068 0 .068.338.068.885-.068.615-.141.953-.344 1.157-.203.208-.27.614-.338 1.296-.068.683-.203 1.094-.339 1.365-.135.27-.135.48-.067.615.067.067.067.135.135.203-.068.067-.135.067-.203.135-.136.068-.203.208-.203.547 0 .27-.068.411-.136.48-.067 0-.203.202-.343.546-.136.27-.271.474-.339.474s-.135.135-.135.48c0 .27 0 .546.067.75a.538.538 0 0 1-.135.546c-.136.135-.271.338-.203.406 0 .068 0 .068.067.136h-.203c-.135 0-.27.067-.338.276a3.002 3.002 0 0 0-.136.885c0 .406-.067.615-.276.682-.203.068-.338.136-.406.271a.996.996 0 0 0-.135.48c0 .203-.068.27-.136.27-.135.068-.271.412-.406 1.162-.203.75-.479 1.297-.885 1.703-.407.411-.677.75-.745 1.026-.068.27-.203.474-.479.677-.271.208-.407.48-.61.89-.203.407-.474.75-.953.954-.474.27-.745.479-.948.75-.135.27-.338.479-.541.547-.277.135-.547.406-.954.885-.406.48-.677.75-.885.75-.203 0-.339.203-.609.412a2.53 2.53 0 0 0-.542.75c-.135.27-.412.541-.885.75-.407.27-.745.473-.881.682-.135.203-.411.338-.817.406-.407.068-.745.203-.948.48-.209.27-.412.405-.75.405-.271.068-.474.141-.61.276-.135.136-.479.271-.953.339-.541.135-.88.276-1.021.412-.135.135-.27.27-.27.406 0 .067-.068.208-.271.344-.203.135-.542.203-1.089.203-.542 0-.88.067-1.151.27a2.33 2.33 0 0 1-.953.412c-.339.068-.677.203-.88.547-.276.27-.615.474-1.089.614-.474.136-.745.271-.885.339-.068.135-.271.135-.542.135s-.542-.067-.745 0c-.208.068-.343.068-.479.203-.068.073-.271.141-.474.141-.203 0-.474.136-.745.27-.276.204-.479.272-.546.272-.068 0-.068 0-.136-.068v.208c-.271-.067-.609-.067-.88-.14-.615-.068-1.021-.068-1.156 0-.203.14-.339.14-.542.14-.208 0-.344-.067-.344-.067-.067-.073-.203-.141-.474-.141-.271-.068-.474 0-.541.068-.136.14-.271.14-.48.073-.203-.073-.338-.073-.406 0-.067.067-.338.067-.812.067-.479 0-.953 0-1.563.068-.547.136-1.224.068-2.041-.208-.813-.203-1.422-.339-1.834-.271-.406.068-.609 0-.677-.068-.068-.067-.271-.135-.682-.135-.203 0-.406 0-.61-.068l.136.136.068.067h-.136c-.068 0-.203-.067-.271-.203-.067-.14-.338-.208-.744-.068-.344.068-.615.068-.683 0-.067-.073-.203-.073-.271 0-.135.068-.27 0-.474-.208-.203-.203-.343-.338-.546-.338-.204-.068-.339 0-.339.067 0 .068-.068.068-.068.136-.067-.068-.067-.203-.135-.271-.068-.209-.339-.276-.818-.276-.406 0-.677-.068-.745-.203-.067-.136-.27-.271-.677-.271-.411-.068-.614-.209-.75-.344-.135-.135-.338-.27-.744-.338a1.766 1.766 0 0 1-.818-.344 1.143 1.143 0 0 0-.677-.203c-.271 0-.479-.068-.547-.136a.819.819 0 0 0-.542-.203c-.271 0-.406-.14-.406-.276 0-.135-.068-.27-.203-.406-.136-.14-.344-.276-.547-.276-.203-.068-.406-.068-.406 0l-.068.067c-.068-.067-.068-.203-.135-.27-.136-.203-.271-.271-.542-.412-.276-.068-.479-.203-.547-.406-.068-.203-.203-.271-.338-.271-.136 0-.271-.073-.339-.276-.135-.203-.271-.27-.542-.27-.276-.069-.411-.136-.411-.21 0-.135-.136-.27-.474-.608-.271-.277-.745-.615-1.359-.891-.61-.271-1.089-.61-1.36-.953-.271-.339-.474-.547-.474-.683a.373.373 0 0 0-.203-.338c-.135-.068-.271-.276-.406-.547-.136-.27-.412-.547-.75-.75a2.402 2.402 0 0 1-.88-.953c-.204-.412-.48-.75-.886-.89-.406-.136-.677-.542-.88-1.022-.208-.479-.276-.885-.276-1.02 0-.141 0-.412-.135-.683-.136-.276-.204-.411-.271-.411-.068 0-.136-.136-.203-.48-.068-.27-.271-.609-.678-1.02-.411-.406-.682-1.089-.953-2.183-.27-1.02-.474-1.635-.677-1.838-.208-.208-.276-.547-.343-1.094-.068-.547-.204-.885-.339-1.088-.135-.209-.339-.276-.542-.276-.203-.068-.271-.203-.271-.547 0-.339-.067-.61-.135-.886-.068-.27-.208-.406-.276-.406h-.068c.068-.068.068-.208.068-.276a2.43 2.43 0 0 0 .135-.75c0-.27-.067-.542-.135-.614-.068-.136-.135-.339-.068-.75.068-.407.068-.75-.067-.954-.136-.203-.204-.27-.271-.27-.068 0-.136.067-.136.067.068-.135.068-.203.068-.343.068-.271.068-.407-.068-.542-.135-.14-.27-.412-.27-.75-.068-.412-.204-.682-.271-.818-.136-.208-.203-.479-.203-.89 0-.407-.068-.75-.276-1.089-.204-.344-.204-.615-.136-.818.068-.276.068-.411 0-.547-.068-.135-.068-.27-.068-.479 0-.203 0-.338-.067-.338-.068 0-.068-.136-.068-.344 0-.203-.068-.542-.203-1.089-.136-.547-.271-.953-.203-1.297.067-.406 0-.614-.068-.682-.135-.068-.203-.682-.203-1.906 0-1.23.068-2.115.271-2.797.203-.682.338-1.094.271-1.161-.068-.068-.068-.271-.068-.547.068-.271 0-.474-.136-.61-.067-.073-.067-.14-.135-.208h.203v-.885c0-.547.068-.953.203-1.089.136-.14.203-.276.203-.547 0-.276.068-.411.136-.547.068-.067.068-.203.135-.27l-.067-.068c-.068-.068-.068-.276.067-.682.141-.412.141-.683.073-.75-.073-.068-.073-.209 0-.277.068-.067.136-.203.136-.474a.77.77 0 0 1 .203-.546c.135-.068.203-.203.135-.271 0-.073-.068-.14-.068-.14.068 0 .068-.069.136-.069s.203-.135.203-.27c0-.068.068-.203.068-.271-.068.068-.136.068-.136.135-.067 0-.067.068-.135.136v-.136c0-.068.068-.135.271-.276.203-.135.338-.338.406-.614.068-.271.203-.474.271-.542.14-.068.208-.136.276-.344.135-.203.135-.406.135-.541 0-.141.068-.48.203-.891.136-.406.203-.682.203-.75 0-.136.136-.339.542-.75.412-.406.615-.75.615-1.021 0-.276 0-.48-.068-.547-.068-.067-.068-.135-.135-.135.067 0 .135-.068.135-.068.068-.068.135-.276.068-.547-.068-.27 0-.479.135-.547.136-.067.203-.203.271-.406s.135-.344.271-.344c.135-.067.271-.135.338-.27.136-.136.136-.344.136-.547-.068-.203.135-.474.479-.75.338-.271.542-.615.609-1.021.068-.412.203-.683.271-.75.068-.068.271-.344.406-.683.141-.343.276-.546.547-.682a.514.514 0 0 1 .271-.135c0-.068-.068-.068-.068-.136-.067-.073.068-.208.271-.343.203-.203.271-.339.271-.547 0-.203.135-.407.411-.615.271-.203.407-.474.407-.61 0-.14.067-.275.271-.275.203 0 .474-.136.744-.339a3.14 3.14 0 0 0 .683-.682c.135-.276.203-.48.067-.547-.067-.068-.067-.135-.067-.135.067-.068.135-.068.203-.136.135-.067.203-.208.271-.344 0-.203.067-.27.203-.338.135-.068.338-.136.75-.136.406 0 .677-.067.948-.208.203-.135.338-.27.338-.474 0-.208.141-.344.412-.411.27-.068.474-.271.609-.48.135-.203.271-.27.339-.27.067 0 .067 0 .135.067v-.203h.276c.203 0 .271-.067.339-.203a.367.367 0 0 1 .338-.208c.136 0 .339-.068.542-.203.203-.136.271-.271.271-.339 0-.067.073-.208.276-.208s.27-.136.406-.271c.068-.135.338-.27.812-.338.412-.141.683-.209.75-.344.068-.136.136-.203.271-.203.068 0 .271-.136.474-.277.203-.203.547-.338.953-.338.474 0 .745 0 .953-.068.204-.067.271-.203.407-.344.067-.203.406-.27.88-.338.479-.068 1.088-.203 1.698-.547.614-.27 1.156-.406 1.562-.406.412 0 .75-.073.953-.14.204-.136.407-.136.745-.068.344.067.547.067.615-.068.068-.068.068-.136.068-.136l-.068-.067s-.068 0-.068-.068c.136.068.203.135.339.135.27.136.474.136.744.136.276-.068.48-.136.547-.203-.338-.412-.271-.48-.271-.547Zm-87.9 4.64v.136c0 .135.067.203.135.203.135 0 .411 0 .885-.135.474-.136.88-.204 1.157-.136.27.068.474.068.541 0 .068-.067.068-.067.136-.14 0 .072.067.14.135.14.068.136.27.136.682.136.407 0 .677 0 .745-.068.068-.068.136-.068.136-.136 0 .068 0 .136-.068.136s-.068.135-.068.135c.068 0 .136.068.203.068.136 0 .339 0 .615-.068.27-.067.474-.067.61.068a.85.85 0 0 0 .609.068c.27 0 .682 0 1.156.135.542.136.885.276 1.224.48.338.202.677.338 1.015.405.412.141.615.141.75.141.136 0 .271.068.339.203a.694.694 0 0 0 .406.339c.203.073.48.073.886.073s.812.203 1.224.541c.406.344.812.547 1.15.615.344.068.615.203.818.344.203.135.407.27.542.27.203.068.338.204.474.407.14.208.344.344.547.276.135 0 .27-.068.338-.068v.547h.339c.203 0 .48.203.818.542.338.343.609.547.744.547h.271c0 .067-.067.135-.067.203-.068.135.067.276.27.479.209.203.547.27.886.27.406 0 .61 0 .745.136.14.073.208.209.276.48.067.275.203.41.338.41.068 0 .068.069.136.069a.146.146 0 0 0-.136.135c-.135.068-.067.203.068.479.135.27.338.474.61.682.27.204.546.339.75.407a.682.682 0 0 1 .406.343c.067.136.203.407.406.61.203.208.406.547.547.89.135.339.338.542.541.75.203.136.406.339.542.683.135.27.203.474.338.541.141.068.276.344.344.89.068.543.339.886.677 1.157.339.276.542.547.542.75 0 .203.135.48.276.615.203.203.339.338.339.479 0 .135.067.203.203.27.135.069.27.548.338 1.298.068.817.339 1.432.683 1.77.338.344.541.818.609 1.297.068.547.135.886.27.953.069.068.069.068.136.068-.067.068-.067.14-.135.14-.068.069 0 .272.27.542.271.209.412.547.48.818.068.276.203.547.406.615a.513.513 0 0 0 .27.135c0 .073-.067.073-.067.073 0 .068-.068.068-.068.136 0-.068-.067-.068-.067-.136-.068 0-.068-.073-.068-.073 0 .073 0 .209.068.276.067.203.067.339.203.547.067.203.203.339.27.339.068 0 .136.135.068.343-.067.203 0 .339.136.474l.135.136c-.067.067-.067.067-.067.14-.068.068-.068.339-.068.818 0 .474.135.953.27 1.5.141.542.277.75.344.818.068.068.136.338.136.885v.818h.135l-.203.203c-.135.14-.203.344-.135.615.067.276 0 .479-.068.547-.068.067-.068.27-.068.411 0 .203.068.27.203.27.136.069.204.272.339.75.068.48.068 1.569 0 3.345-.135 1.77-.27 2.859-.406 3.203-.209.338-.276.682-.209.885.073.203 0 .344-.067.344-.068.068-.068.27-.068.75 0 .474 0 .75.068.818.067 0 .067.067.067.067l-.203.203c-.135.136-.27.412-.338.886-.068.479-.136.75-.068.958.068.203 0 .339-.136.339-.067.067-.203.27-.27.75-.068.479-.203.75-.339.885-.203.14-.203.344-.135.547.068.135.068.203.135.344-.067 0-.135-.073-.135-.073-.068-.068-.209.073-.276.276a1.41 1.41 0 0 0 0 .75c.067.27.067.547-.068.885-.135.344-.135.75-.068 1.162.068.406.068.61 0 .682-.135.068-.203.203-.338.406-.068.276-.136.547-.136.886 0 .343-.135.546-.27.546-.204 0-.407.136-.547.271-.136.209-.203.344-.203.547 0 .209-.068.276-.136.412-.068.135-.135.338-.135.682 0 .338-.068.542-.204.615-.135.067-.27.203-.27.338-.068.203-.136.48-.203.953a5.27 5.27 0 0 1-.339 1.23c-.14.338-.208.546-.208.682 0 .067.067.067.067.135h-.135c-.068 0-.27.203-.542.547-.27.338-.474.682-.541 1.02-.068.345-.136.548-.204.548-.067 0-.208.135-.343.411-.203.271-.271.61-.339 1.089 0 .479-.135.817-.27 1.02-.136.277-.407.48-.745.615-.344.209-.547.344-.547.48 0 .135-.136.27-.339.546-.203.203-.27.339-.27.474 0 .14-.136.209-.272.276a1.496 1.496 0 0 0-.546.339c-.136.135-.271.276-.271.411 0 .136-.136.339-.406.615-.271.27-.407.474-.339.541 0 .068.068.068.068.068-.068 0-.136.073-.203.073-.136 0-.412.27-.75.677-.339.412-.745.682-1.224.89-.474.204-.88.407-1.151.683-.271.339-.412.542-.412.61v.14h-.338c-.203 0-.407.136-.542.339-.136.203-.27.27-.474.27-.208 0-.344.073-.48.276a1.053 1.053 0 0 1-.54.407 1.483 1.483 0 0 0-.542.344.513.513 0 0 0-.136.27c-.068-.067-.14-.067-.14-.067a.432.432 0 0 0-.407 0c-.203.067-.338.203-.541.547-.204.27-.339.406-.61.479a2.254 2.254 0 0 0-.547.203c-.135.135-.27.135-.541.135h-.407v.068c0 .068-.208.203-.682.27a3.33 3.33 0 0 0-1.083.548c-.276.203-.547.343-.886.343-.338.068-.474.136-.541.271-.068.136-.276.203-.75.203s-.745.068-.813.276a.513.513 0 0 1-.135.271c0-.067-.068-.135-.068-.135-.073-.068-.14-.136-.276-.136-.135 0-.27.068-.542.204-.27.135-.406.27-.406.338 0 .073-.339.14-.885.073-.542-.073-.88-.073-1.016.068-.135.135-.276.203-.344.135-.067 0-.135-.068-.135-.068.068 0 .068-.067.135-.067.068 0 .136 0 .136-.068H50.5c-.203 0-.474.068-.745.135-.27.068-.614.136-1.02.068-.407-.068-.745 0-.949.136-.203.067-.479.135-.682.067-.203-.067-.474.068-.813.203-.343.14-.817.209-1.359.068-.541-.068-1.02-.135-1.427-.068-.406.068-.677.068-.885-.067-.203-.136-.339-.136-.542-.068s-.339.068-.474-.068c-.135-.067-.406-.135-.818-.067-.406.067-.609.135-.609.203v.067c-.068-.067-.136-.067-.136-.135-.067-.135-.27-.203-.473-.203-.209-.068-.615 0-1.157.135-.27.068-.614.136-.885.203v-.27c-.068 0-.068.067-.136.067-.067 0-.067.068-.135.068v-.135c0-.068-.068-.136-.27-.136a.724.724 0 0 1-.34-.203c-.067-.14-.202-.14-.479-.14-.27 0-.406-.068-.473-.136-.068-.135-.203-.203-.474-.203a1.408 1.408 0 0 0-.75 0c-.271.068-.61-.068-1.084-.271-.547-.208-.885-.48-1.224-.755-.338-.271-.609-.474-.953-.542a3.209 3.209 0 0 1-1.015-.411 2.614 2.614 0 0 0-1.293-.34c-.474 0-.953-.208-1.36-.614-.406-.412-.812-.683-1.156-.818-.406-.136-.61-.209-.745-.136-.135 0-.27 0-.338-.14-.068-.136-.339-.203-.615-.271a1.577 1.577 0 0 1-.744-.412 1.573 1.573 0 0 0-.886-.474c-.338-.067-.948-.411-1.63-.958-.677-.61-1.083-.953-1.083-1.02 0-.136-.136-.272-.344-.548-.271-.27-.474-.474-.677-.541-.271-.068-.474-.276-.677-.547-.203-.276-.48-.547-.75-.818-.339-.208-.542-.344-.61-.344-.135 0-.203-.135-.338-.406a1.212 1.212 0 0 0-.683-.614c-.338-.136-.677-.48-.947-.953-.277-.48-.547-.824-.818-1.027-.271-.203-.406-.406-.406-.614 0-.203-.204-.474-.542-.75a3.019 3.019 0 0 1-.682-.75c-.136-.203-.271-.683-.339-1.292-.068-.614-.203-.958-.406-1.094-.209-.135-.276-.338-.344-.547 0-.203-.135-.406-.338-.541-.204-.073-.339-.412-.339-.89 0-.475-.135-.75-.203-.954-.136-.135-.203-.203-.339-.203h-.203c0-.068 0-.135.068-.135 0-.073 0-.209-.14-.344-.136-.136-.204-.48-.136-.953a2.042 2.042 0 0 0-.27-1.297c-.204-.339-.34-.547-.475-.547-.135-.068-.203-.203-.203-.474 0-.276-.068-.48-.203-.547-.068-.068-.136-.203-.068-.276.068-.135.068-.27-.068-.474-.135-.203-.208-.547-.208-1.161 0-.615-.203-1.089-.406-1.5-.203-.339-.339-.953-.271-1.839 0-.89 0-1.297-.068-1.297-.067 0-.067-.343-.067-.953 0-.614 0-1.026.067-1.297.068-.203.068-.614-.067-1.093-.136-.474-.136-.818-.068-.954.135-.135.135-.338.135-.547-.067-.27 0-.473.068-.75.068-.27.135-.473.068-.682-.068-.203-.068-.541-.068-1.224 0-.614.068-1.093.203-1.297.136-.203.203-.479.203-.885 0-.411.068-.615.203-.818.141-.208.209-.343.141-.547 0-.203 0-.547.068-.953.135-.479.135-.755.067-.958-.067-.203 0-.406.068-.547.136-.203.203-.339.068-.474-.068-.135 0-.276.135-.411a.769.769 0 0 0 .203-.542c0-.208.068-.411.271-.547.203-.135.271-.48.339-1.026 0-.542.067-.885.203-.953.135-.068.135-.203.135-.48v-.338c.073.068.141.068.141.136.068.067.203 0 .406-.271.203-.276.271-.75.339-1.432.067-.683.203-1.162.541-1.365.344-.203.547-.412.547-.615s.068-.338.203-.406c.068-.073.136-.276.136-.547 0-.276.135-.614.338-.958a1.82 1.82 0 0 0 .271-.886c0-.203.068-.406.271-.682.208-.27.344-.406.344-.541 0-.141.067-.344.338-.683.204-.344.271-.614.271-.75 0-.14.068-.208.203-.276.136-.068.203-.203.271-.406 0-.208.135-.344.344-.48.203-.135.338-.27.338-.546 0-.136 0-.203.068-.339l.135.136c.136.067.204.067.271 0 .068-.068.203-.271.339-.547.135-.271.338-.474.547-.542.203-.073.338-.208.474-.547.135-.343.203-.411.338-.479.136 0 .339-.203.542-.406.276-.208.411-.547.48-.823.067-.338.202-.542.473-.75.203-.203.406-.474.474-.75.068-.338.203-.474.344-.542.135-.067.27-.276.338-.546.136-.271.339-.547.61-.615.27-.068.474-.203.541-.339 0-.14.141-.208.344-.276.203 0 .339-.203.406-.474.136-.276.339-.546.745-.823.412-.27.683-.541.75-.677.136-.208.406-.411.948-.546.547-.136.886-.344 1.089-.547.203-.203.338-.412.338-.547 0-.068.136-.203.412-.407.27-.208.474-.343.541-.546.136-.203.474-.339 1.021-.615.61-.203.88-.406.948-.547 0-.068.136-.203.339-.203.203-.068.27-.135.343-.203.068-.136.271-.203.61-.276.338-.068.61-.203.812-.542.209-.276.412-.479.683-.614.27-.136.474-.203.677-.203h.27v-.277h.209c.135 0 .27-.067.474-.27.203-.204.406-.271.677-.344.27-.068.479-.068.547 0 .067.073.203.073.406 0 .203-.068.338-.136.338-.271 0-.068.271-.135.75-.135h.678v-.276c.067.072.067.14.135.14.068.136.27.136.61.068.343-.068.546-.209.614-.276.068-.068.203-.203.474-.271.27-.068.406-.135.541-.27.136-.142.209-.21.277-.142.067 0 .067 0 .135.074 0 .067-.068.067-.135.135 0 .068-.068.068-.068.135.203-.067.338-.135.541-.203.34-.14.678-.208 1.09-.14.405.072.88.072 1.353 0 .547-.068.886-.204 1.157-.271.27-.136.541-.136.885-.068.338.068.542.068.745 0a.513.513 0 0 1 .27-.135c0 .067-.067.135-.067.135 0 .068 0 .068-.068.135.068 0 .203 0 .271.068a.761.761 0 0 0 .547 0c.203 0 .474-.135.745-.338 0 0 .135-.136.27-.204ZM93.5 45.276v.141c.068 0 .068-.068.135-.068 0-.073.068-.073.068-.073l.068.073c.067.068.135.068.27.068.068 0 .204-.068.271-.068 0 .068 0 .068-.067.068 0 .067-.068.067-.068.135.135-.068.27-.068.411-.135.271-.068.407-.068.474 0 .068.067.271.135.61.135.338 0 .547.068.547.136v.067c.067 0 .067-.068.135-.068s.068-.067.136-.067c-.068 0-.068.068-.068.068-.068.067-.136.27-.136.682v.547c-.067-.068-.208-.068-.276-.141-.203-.068-.406-.068-.677.073-.135.068-.27.068-.338.135 0-.067.067-.067.067-.135 0-.073.068-.14.068-.14h-.135c-.068 0-.204.067-.271.067-.068.073-.136.073-.209.14.073.068.073.068.141.068 0 .068.068.068.068.136-.276-.068-.48-.068-.75-.136-.203-.067-.474-.067-.745-.067v.271h-.344c-.27 0-.541-.068-.948-.136-.406-.068-.609-.203-.609-.276v-.135c-.073 0-.14.067-.208.067a.432.432 0 0 1-.407 0c-.135-.067-.27-.067-.473.068-.204.14-.34.14-.407.073-.067-.073-.067-.14-.135-.14 0 .067-.073.067-.073.067-.068.073-.068.14-.068.276 0 .068.068.136.068.136-.068 0-.203-.068-.271-.068-.203-.068-.27 0-.406.135-.068.068-.068.136-.136.203-.067-.067-.135-.067-.135-.135-.068-.136-.136-.27-.068-.406.068-.141.068-.344 0-.547-.067-.068-.067-.203-.067-.271.135 0 .203.068.338.068.136 0 .27.067.339.067-.068 0-.068-.067-.136-.067-.067 0-.135-.068-.135-.068.27 0 .542-.073.75-.073.542 0 .812-.135.948-.27.067-.136.27-.204.541-.136.209.068.412 0 .48-.136 0-.067.067-.067.067-.135.068.068.068.135.068.203.068.068.068.136.135.203.068-.068.068-.135.068-.203.068-.135.203-.203.406-.135.204.067.339.067.407 0 .067 0 .067-.068.14-.068 0-.073-.073-.073-.073-.14l-.067-.068c.067.067.14.067.14.067.068.068.203.068.339-.067.068.208.135.208.203.135Z"/></g></svg>