<svg xmlns="http://www.w3.org/2000/svg" width="338" height="351" fill="none"><mask id="a" width="338" height="351" x="0" y="0" maskUnits="userSpaceOnUse" style="mask-type:luminance"><path fill="#fff" d="M0 0h337.833v350.828H0V0Z"/></mask><g mask="url(#a)"><path fill="#000" d="M188.76.276c-.526.266-.792.396-1.193.396-.396 0-.531.135-.661.265-.136.136-.532.266-1.063.266-.531 0-.932 0-1.062.136-.136 0-.136.13-.266.13 0 0 0-.13-.135-.13-.131-.136-.396-.136-.927 0-.532.13-1.063.13-1.329 0-.395-.136-.796-.136-1.192.13-.401.135-1.063.265-1.729.135-.792-.135-1.323-.135-1.459.13-.13.136-.265.136-.265.266 0-.13-.131-.13-.131-.266-.135-.13-.401-.13-.932-.13s-1.193.13-1.859.266c-.662.13-1.058.531-1.323.927-.266.4-.797.531-1.729.531-.797 0-1.594 0-2.256.266-.661.13-1.062.396-1.328.661-.13.266-.797.531-1.859.797-1.063.266-2.255.401-3.714.135-1.463-.265-2.39-.135-3.057 0-.661.13-1.193 0-1.99-.265-.796-.266-1.593-.531-2.52-.531-.933 0-1.594 0-1.86-.136-.265-.13-1.192-.13-3.052.136-1.859.265-3.187.13-3.849-.136-.666-.265-1.729-.396-3.052-.13-1.463.266-2.26.396-2.656.396-.401 0-.797-.13-1.063-.396-.401-.266-1.062-.266-2.255 0-1.062.266-2.39.396-3.849.266-1.463 0-2.26 0-2.26.13 0 .135-.396.265-1.193.265-.667 0-1.062.136-1.198.266l-.13.135c0-.135-.13-.135-.266-.135-.13-.13-.531-.266-1.192-.266a3.78 3.78 0 0 0-1.995.532c-.662.4-1.594.531-2.651.4-1.063-.135-1.86 0-2.261.261-.395.266-1.062.401-1.989.401s-1.594.13-1.99.662c-.401.4-1.062.53-1.859.53-.797 0-1.458.136-1.724.402s-.531.396-.667.13c-.13-.13-.13-.13-.265-.13 0 .13-.131.13-.266.266-.13.26-.661.26-1.594.13-.927-.13-1.458-.13-1.724.13a2.029 2.029 0 0 1-1.062.266c-.531 0-.927.135-1.063.265-.13.136-1.062.531-2.39.797-1.459.401-2.256.667-2.521 1.063-.266.396-.662.53-1.063.53-.395 0-.797.131-1.062.397-.396.4-.662.531-1.058.531-.4 0-.666.135-1.062.531-.401.401-.797.531-1.594.667-.797.13-1.463.396-1.995.791-.526.402-1.057.667-1.322.667-.266 0-1.063.531-2.26 1.724-1.329 1.193-2.522 1.86-3.584 2.255-1.063.396-1.724.662-1.86.797-.13.266-.53.396-1.062.532-.526.13-1.057.53-1.724 1.062-.662.662-1.328 1.057-2.125 1.193-.797.13-1.193.395-1.323.797-.135.395-.401.53-.667.661-.395.13-.53.396-.796.662-.266.265-.662.666-1.329.796-.53.136-.796.266-.796.532v.265h-.266c-.13 0-.396.266-.797.662-.396.4-.927.666-1.588 1.062-.797.266-1.198.667-1.464 1.198a3.145 3.145 0 0 1-1.063 1.193c-.395.265-.796.396-1.062.265-.13 0-.526.13-.927.396-.396.401-.662.667-.927 1.193-.266.531-.401.667-.531.667-.136 0-.401.13-.667.661-.266.401-.531.531-.662.531-.135 0-.666.396-1.328 1.193-.661.797-1.192 1.198-1.458 1.198s-.531.13-.531.266c-.136.265-.266.265-.401.265-.13 0-.396.26-.532.792-.265.531-.53.932-.927 1.328-.4.401-.797.661-.797.927s-.265.667-.796.797c-.532.135-1.063.531-1.594 1.063-.531.53-.797.927-.797 1.192 0 .266-.13.401-.396.667-.266.13-.4.266-.4.531 0 .13-.267.526-.662 1.057-.532.401-.667.797-.667.933 0 0 0 .13.135.265-.135 0-.395.13-.53.13-.397.136-.532.402-.662.797 0 .13 0 .396-.136.532 0 0-.13 0-.265-.136-.13-.13-.396.266-1.063.933-.531.661-.927 1.062-1.328 1.192-.396.13-.531.396-.531.662 0 .265-.266.666-.797 1.062-.526.401-.792.667-.662.797 0 .13 0 .266-.265.396-.13.135-.396.401-.396.797 0 .4-.401.797-1.063 1.062-.666.266-.932.662-1.062 1.063-.136.396-.266.661-.667 1.062-.395.396-.661.662-.927.662-.13 0-.396.396-.531 1.062-.13.662-.396 1.193-.662 1.459a1.14 1.14 0 0 0-.53.927c0 .265-.136.53-.402.53-.265.136-.531.402-.797 1.063-.265.662-.396.928-.661.928h-.136v.53c0 .402-.265 1.063-.927 2.256-.265.531-.661 1.198-.927 1.73 0 0-.135 0-.135-.136-.13-.13-.531.135-1.063.661-.661.531-.927.797-.797 1.063 0 .135 0 .4-.265.53-.266.136-.396.532-.266 1.063.136.532 0 .662-.265.662-.13 0-.396.4-.396.797 0 .4-.266.797-.401 1.062-.266.266-.396.531-.396 1.193-.136.531-.531 1.328-1.193 2.125-.666.797-1.062 1.328-1.062 1.724 0 .396 0 .797-.266 1.328-.265.531-.401.927-.265 1.063 0 .13 0 .13.13.26-.13.135-.266.135-.396.266-.266.135-.401.4-.401.53v.402c-.13 0-.13-.135-.266-.135-.13 0-.265 0-.531.265-.266.266-.662 1.063-1.193 2.786-.531 1.725-1.062 2.657-1.458 3.053-.401.4-.531.796-.531 1.192 0 .401-.136.797-.401 1.063-.266.266-.396.797-.396 1.458 0 .667-.136 1.198-.531 1.594-.401.396-.532.927-.667 1.724-.13.797-.266 1.328-.531 1.594-.266.265-.396.395-.662.395h-.265v.401a.99.99 0 0 1-.266.662c-.13.135-.396.797-.396 1.594s-.266 1.458-.667 1.724c-.395.265-.53.661-.661 1.328 0 .531-.136.927-.266 1.062-.135 0-.135.261-.135.526 0 .266-.266 1.198-.797 2.521-.662 1.328-.797 2.391-.662 3.052.13.797.13 1.464-.265 1.99-.401.666-.667 1.594-1.063 2.786a29.528 29.528 0 0 1-.661 2.521c-.266.401-.401.531-.667.531-.265 0-.396.266-.661.797-.136.531-.401 1.063-.401 1.724 0 .667 0 1.063.135 1.328.13.136 0 .532-.265.927-.401.401-.532 1.329-.532 2.657s-.265 2.125-.53 2.255c-.267.13-.402.396-.532.797-.136.396-.136.531-.266.531-.135 0-.265.266-.396.797-.135.526-.135 1.193-.135 1.989.135.797 0 1.459-.396 2.12-.4.531-.531 1.063-.667 1.594-.13.396-.13.927-.13 1.458.13.532 0 1.193-.4 1.86-.397.661-.397 1.593-.131 2.521.13.927.13 1.723-.266 2.385-.4.667-.53 1.328-.53 2.125 0 .797 0 1.328-.136 1.724-.266.401-.266 1.062-.266 2.125 0 1.062-.13 1.854-.531 2.521-.396.661-.531 1.458-.662 2.385 0 .932 0 1.464.13 1.724.136.266 0 .667-.13 1.198-.265.531-.4 1.063-.265 1.328 0 .396 0 .662-.136.792-.13.135-.13.401-.13.531 0 .266-.135 1.063-.396 2.521-.265 1.458-.4 2.391-.265 2.922.13.531.13.927-.136 1.062-.13.261-.265.526-.265 1.058 0 .531-.13.796-.266.932-.13.13-.396.531-.531 1.458-.266.797-.396 1.193-.532 1.328-.13.131-.13.266-.13.396 0 .266 0 .531-.135 1.063-.13.531-.13 1.328.135 2.255.266.927.266 1.724 0 2.521a5.625 5.625 0 0 0-.265 2.651c0 1.062 0 1.594-.266 1.729-.135 0-.401.526-.531 1.588-.136 1.063-.266 2.125-.136 3.584.136 1.458 0 2.39-.395 3.052-.402.661-.667 1.859-.667 3.448-.13 1.594-.266 2.521-.396 2.521-.13.135-.13.666.13 1.593.266.927.266 1.594 0 2.125-.26.396-.396.927-.13 1.459.13.531 0 1.192-.266 2.12-.395.796-.395 1.593-.265 2.255.135.666.135 1.328.135 1.995-.135.661-.135 1.057-.265 1.057h-.136l.136.135s.13 0 .13.13c0 .136-.13.266-.13.401-.136.266-.136 1.063-.136 2.256 0 .661.136 1.192.136 1.854-.136 0-.136-.13-.136-.13-.13 0-.13-.131-.265-.131 0 .792-.13 1.589-.13 2.386-.136 1.594-.266 2.39-.402 2.521-.13.135-.13.661-.13 1.724 0 1.062.13 1.724.396 1.859.266.13.4.531.531 1.063 0 .395 0 .796-.265 1.057-.266.265-.396.797-.396 1.729 0 .927 0 1.589.13 1.854.135.266.135.531 0 .667-.13.265-.13.927-.13 2.12.13 1.198 0 1.859-.136 2.125-.13.13-.13.531 0 1.062.136.531.136.792 0 .927-.13.13-.13.396-.13 1.193v1.062H.265c0 .136.135.136.135.266s0 .266-.135.531c-.266.13-.13.797.135 1.86.266 1.057.266 2.119.13 3.312-.13 1.198-.13 1.99.136 2.391.266.396.396.661.266.927-.136.135-.136.797-.136 1.859v1.99c0 .265-.13.531-.265.531H.4c0 .13.13.13.13.266.135.265.135.396 0 .531-.13.13-.13.531 0 1.193a3.916 3.916 0 0 1-.13 2.125c-.136.395-.266.791-.266 1.192h.13c.135 0 .266.266.266.662 0 .401.135.797.4.932.13.13.13.927 0 2.255-.135 1.323-.135 2.386 0 2.787.13.396.266 1.057.13 1.588 0 .532 0 1.063.267 1.328.135.266.265.396.135.532-.135.13-.135.396.13.927.136.401.136 1.859 0 4.245-.13 2.39-.13 3.849.136 4.38.13.265.265.531.395.797-.13 0-.13 0-.13.13-.135.135-.265.531-.4 1.594 0 .531-.131 1.062-.131 1.458h.13c.136 0 .266.266.401.932.13.531.13 1.058.13 1.459 0 .395-.13.531-.13.531-.135 0-.135.13-.265.13.13.135.13.135.265.135.13.131.13.532.13 1.063 0 .526-.13 1.057-.265 1.323-.13.265-.266.797-.266 1.458 0 .667 0 1.198.136 1.594 0 .401.13.531.395.667.136.13.266 1.192.266 3.046v2.922h-.266c0 .131 0 .266.136.396 0 .136.13.266.13.401h-.396c0 .13.13.266.13.266 0 .13 0 .396-.13.396-.135.135-.135.265 0 .531.13.396.266 1.328.266 3.052s-.136 2.521-.266 2.786c-.135.131-.265.396-.135.797 0 .396-.13 1.063-.396 1.99s-.401 1.859-.135 2.521c.265.661.265 1.594.135 2.786-.135 1.193-.266 2.12-.135 2.651.135.532.135.797 0 1.063-.13.135-.13.531 0 1.062.135.532.135 1.193.135 1.86 0 .661-.135 1.057-.135 1.057-.13.135-.13.401 0 1.062.135.667.135 1.063 0 1.459-.13.135-.13.401-.266.531h.401c0 .266-.135.531-.135.667 0 .531 0 .791.265 1.192.266.396.531.797.667 1.329.13.531.13 1.322.13 2.651 0 1.192.396 3.187 1.458 5.838 1.063 2.656 1.73 4.245 2.125 4.646.401.396.532.531.532.792 0 .135 0 .265-.13.265 0 0 .13 0 .13-.13l.135-.135c.13.401.266.796.396 1.328.265.797.531 1.328.661 1.328h.266v.265c0 .266.401.662 1.062 1.459.667.666 1.329 1.193 1.73 1.328.395.13.661.396.796.661.13.266.266.532.532.532.265 0 .526.265.927.927.396.666 1.594 1.328 3.719 1.995 1.99.791 3.052 1.192 3.182 1.458.135.13.666.265 1.86.265 1.062 0 1.723.131 1.859.266.13.13.396.266.661.13.266-.13.797-.13 1.594-.13.797.13 1.198 0 1.328-.135 0-.131.396-.266.927-.266s1.198 0 1.86.135c.4 0 .796 0 1.062.131 0 0 0 .135-.13.135 0 0 0 .13-.136.13.266 0 .532 0 .797-.13.266 0 .531 0 .797-.135v.265h1.86c1.192 0 2.124-.13 3.051-.265.797-.131 1.459-.532 2.125-1.063.662-.396 1.193-.661 1.724-.661h.667v-.13c0-.136.266-.266.662-.266.53 0 .797-.136.927-.401.135-.13.53-.266 1.062-.266.531 0 1.328-.13 2.125-.396.797-.265 1.328-.666 1.594-1.062s.661-.662 1.328-.662c.661 0 1.193-.265 1.594-.531.396-.265.797-.531 1.062-.401.266.136.532 0 1.058-.265.53-.266.797-.527 1.062-.792.136-.266.266-.401.531-.266.136 0 .401 0 .667-.135.266-.13.797-.396 1.594-.662.927-.135 1.458-.265 1.724-.135.265.135.531 0 .661-.13 0-.136.401-.266.797-.266.401-.135.932-.266 1.198-.667.266-.395.661-.526 1.063-.395.395 0 .525 0 .66-.131.131-.135.397-.135.662.131.401.135.933.265 1.594.135.667-.135 1.328 0 1.73.266.395.26.926.395 1.192.395.266 0 .531.131.661.396.136.266.667.532 1.594.667.933.13 1.73.661 2.39 1.323.662.667 1.329 1.198 1.99 1.463.667.266 1.063.662 1.063.797 0 .131.531.526 1.328.792s1.724.531 2.656.667c1.063 0 1.724.265 1.99.531.4.266.797.396 1.328.13s1.063-.13 1.458 0c.401.136.797.136 1.063 0 .265-.13.531-.13.932.136.396.265 1.063.395 1.724.395.662 0 1.594-.13 2.255-.531.667-.396 1.594-.531 2.521-.797 1.063-.265 1.594-.396 1.594-.531 0-.13.266-.396.666-.661.532-.266.797-.396 1.063-.266.266.135.531 0 .662-.13.135-.136.4-.136.53 0 .136.13.662-.136 1.46-.667a10.124 10.124 0 0 0 1.593-1.328c.265-.396.531-.662.932-.792a1.797 1.797 0 0 0 1.063-.932c.395-.396.791-.662 1.323-.797.531-.13 1.463-.526 2.791-1.193 1.323-.661 2.651-1.062 3.849-1.192 1.193 0 1.99-.266 2.255-.532.266-.265.662-.395 1.193-.265.401.265.932.265 1.328.265.401-.13.797 0 .797.131.135.135.266.265.667.265.396 0 .661.136 1.192.401.396.266 1.063.396 1.86.532.797.13 1.594.265 2.255.661.667.401 1.193.531 1.594.401.396-.135.927-.135 1.458.13.531.266 1.328.13 2.526 0 1.193-.13 2.521-.265 4.245-.13 1.724.13 2.922-.135 3.849-.667.932-.395 1.463-.927 1.729-1.328.266-.396.662-.791 1.458-1.057.797-.266 1.329-.401 1.459-.266h.531c.135 0 .135-.135.266-.135l-.131-.13-.135-.136c.266-.13.531-.13.797-.265.531-.131.932-.662 1.198-1.193.26-.662.927-1.328 2.12-2.255 1.062-.927 1.729-1.86 1.994-2.657.131-.791.396-1.192.662-1.192h.396v-.266c0-.13.135-.396.265-.396.136 0 .401-.401.532-.927.135-.531.401-.932.666-1.062.266-.136.531-.532.531-1.063 0-.531.396-.797.797-1.062.396-.266.797-.532.797-.927.13-.401.266-.532.396-.532.266 0 .531-.661.797-2.125.135-.796.396-1.458.531-2.119.13.13.396.13.531.265.396.266.797.13 1.459-.135.531-.396 1.198-.396 1.995-.13.791.13 1.588.265 2.255.13.396-.13.797-.13 1.062-.266v.266c0 .135.662.265 1.99.401 1.328.13 2.521.13 3.453-.136 1.062-.13 1.458-.265 1.594-.13.13.13.791.13 1.989.13 1.193 0 1.99 0 2.125.136.13.13.532 0 1.193-.531.661-.532 1.193-.667 1.458-.532.266.131.797.131 1.328.131.532-.131.933 0 1.329.135.135.13.401.13.531.266 0-.136 0-.136.135-.136.13-.13.792-.265 2.12-.265s2.125 0 2.26-.131c.131 0 .131-.135.131-.135.135.266.401.667.531.932.401.662.531 1.193.531 1.589.13.531.266.797.531 1.062.266.136.532.667.662 1.193.135.667.401.932.531 1.062.136.136.266.136.266.402 0 .13.265.661.932 1.458.661.797 1.328 1.328 2.12 1.724.797.396 1.198.797 1.328 1.062.135.266.266.532.531.662.266.135.531.401 1.063.401.531 0 .797.265 1.062.531.266.26.932.396 1.86.526.927.136 1.724.266 2.255.667.531.396 1.328.661 2.125.797.797.13 2.125.13 3.849.13 1.724 0 2.786 0 3.052-.13.265-.136.531-.136 1.062 0 .532.13.667.13.667 0 .13-.136.396-.266 1.062-.401.662-.131 1.193-.131 1.459 0 .396.135.797 0 1.458-.266.667-.266 1.063-.396 1.063-.13 0 .265.401.13.797.13.531 0 .927-.13 1.458-.531.531-.396.932-.532 1.198-.532.265 0 .797-.13 1.328-.526.661-.401 1.193-.401 1.854-.265.667.13 1.859 0 3.719-.401 1.724-.396 2.656-.531 2.786-.396.136.13.797.396 2.125.661 1.328.266 2.255.667 2.657 1.063.395.396.927.661 1.458.797.531.13 1.062.396 1.463.797.396.395 1.058.661 2.12.661 1.063 0 1.729 0 1.86.13.135.136.932.266 2.52.532 1.464.135 2.526.135 2.922 0a3.352 3.352 0 0 1 1.724-.131c.797 0 1.594-.135 2.657-.661 1.062-.531 1.859-.797 2.52-.797.667 0 1.328-.135 1.86-.531.531-.401 1.062-.531 1.463-.531.396 0 .532-.136.532-.266 0-.136.265-.266.526-.136.401 0 .666 0 .932-.13.265-.265.661-.396 1.193-.396.531 0 1.062-.401 1.729-.932.661-.531 1.192-.927 1.989-1.328a4.707 4.707 0 0 1 2.256-.526c.796 0 1.328-.135 1.593-.266.266-.135.797-.265 1.459-.265.666 0 1.062.13 1.198.265.13.131.531.131 1.192 0 .667-.135 1.198-.135 1.594-.135.396 0 .531.266.531.531 0 .266.797.531 2.255.662 1.594.135 2.657.531 3.188 1.062.531.667 1.062 1.063 1.458 1.198.401.26.797.26 1.328.26.532 0 1.063.266 1.724.797.667.532 1.464.797 2.125.797.797 0 1.198.136 1.464.401.13.266.797.526 1.854.927 1.063.396 1.729.662 1.859.927.136.266.667.401 1.73.401 1.057 0 1.588.131 1.724.266 0 .13 1.192.13 3.583 0 1.193-.135 2.391-.135 3.453-.266-.135.131-.135.266-.266.266 0 .13-.135.13-.135.266.266 0 .531 0 .932.13.532 0 1.328-.13 2.255-.662.928-.531 1.86-.796 2.787-.666.932.135 1.724-.13 2.521-.797.797-.526 1.328-.927 1.859-.927.401 0 1.063-.266 1.729-.797.662-.531 1.193-.797 1.724-.797.532 0 1.193-.526 2.125-1.458.927-.927 1.854-1.594 2.651-1.724.667-.266 1.198-.396 1.198-.662.13-.135.396-.401 1.063-.666a2.779 2.779 0 0 0 1.328-1.063c.13-.526.526-.791 1.057-1.193.401-.395.797-.796.932-1.328.131-.661.396-.927.662-.927s.531-.265 1.062-.661c.401-.531.797-.797 1.198-.932.396-.131.662-.527.927-1.193.266-.662.532-1.063.927-1.193.402-.135.667-.401 1.063-.927.266-.531.667-1.464 1.062-2.922.532-1.458.797-2.385 1.198-2.651.396-.266.662-1.062 1.058-1.989.401-.933.666-1.594.797-1.73.135-.13.796-1.323 1.859-3.578 1.062-2.26 1.594-3.719 1.458-4.38-.13-.661 0-1.193.136-1.458.13-.266.265-.532.13-1.063-.13-.531 0-.797.266-1.193.265-.401.531-1.859.666-4.25.13-2.385.396-3.713.531-3.979.131-.13.131-.396 0-.531 0-.13-.135-.13-.135-.13.135-.266.401-.401.531-.531.401-.396.667-.797.667-1.063 0-.396 0-.797-.135-1.328-.131-.531-.131-.927 0-1.057.135-.136.135-.532 0-1.063-.131-.531-.131-.797 0-.932l.135-.13-.135-.131-.131-.135c.131 0 .131-.13.266-.13.13-.136.266-.401.266-.932 0-.396-.136-1.193-.266-2.12-.266-1.063-.266-1.99-.135-3.052.135-1.063.135-1.724 0-1.86-.131-.265 0-.661.135-1.458.266-.797.396-1.594.396-2.255v-1.063h-.396c.13-.531.13-1.062.13-1.458.136-1.063.136-2.125-.13-3.188-.266-1.192-.266-2.255 0-3.182.266-1.062.396-1.989.13-3.052-.13-1.062-.396-1.724-.531-2.385-.266-.532-.266-1.328-.13-2.125.13-.797.265-1.459.13-1.86 0-.396 0-.661.135-.661.131 0 .131-.531.131-1.459-.131-.796-.266-1.723-.662-2.39-.401-.662-.531-1.724-.401-3.052 0-1.193 0-1.99-.266-2.12-.13-.135-.13-.531 0-1.328.136-.396.266-.662.266-1.063h-.13c-.136 0-.266-.395-.266-1.328 0-.927-.135-1.323-.401-1.458-.265-.13-.265-.662-.13-1.724.13-1.063.13-1.724-.135-2.125-.266-.396-.266-.662-.266-1.057.135-.401 0-.797-.266-1.594-.26-.797-.396-1.458-.26-1.99 0-.531 0-1.192-.136-1.989-.13-.797-.265-1.198-.395-1.198-.136-.13-.136-.266 0-.662.13-.395.13-.927 0-1.724-.136-.796-.136-1.192 0-1.458.13-.135.13-.667.13-1.594s-.13-1.593-.396-2.125c-.266-.531-.401-1.192-.401-2.255 0-1.057-.13-1.724-.266-1.989-.13-.396-.265-.797-.13-1.589.13-.797 0-1.729-.135-3.052-.266-1.328-.532-1.995-.662-2.125-.135-.13-.135-.531-.135-1.458 0-.933-.13-1.594-.266-1.86-.13-.265-.265-.797-.13-1.724.13-.396.13-.927.266-1.328h-.266c-.135 0-.266-.13-.266-.531-.135-.396-.265-.797-.531-1.057-.266-.401-.401-1.063-.401-2.261 0-1.057-.13-1.854-.396-2.255-.265-.396-.265-1.057-.135-1.99.135-.927.135-1.989-.266-3.317-.396-1.193-.526-2.256-.396-3.047.136-.797 0-1.594-.265-2.261-.396-.661-.532-1.458-.532-2.255a11.575 11.575 0 0 0-.796-2.651 8.733 8.733 0 0 1-.662-3.318c.13-1.328 0-1.989-.135-2.255-.13-.135-.13-.265-.266-.396h.401v-.531c0-.401-.135-.932-.531-1.729-.401-.792-.531-1.323-.401-1.458.135-.266 0-.396-.13-.532-.136-.13-.266-.265-.136-.531 0-.13 0-.26.136-.26h-.401c0-.401.135-.797.135-1.063 0-.797 0-1.328-.266-1.859-.265-.531-.401-1.328-.531-2.521 0-1.063-.135-1.724-.265-1.724-.136-.135-.396-.661-.532-1.594-.265-1.062-.396-1.854-.265-2.521 0-.661 0-1.328-.266-1.989-.266-.662-.396-1.328-.13-1.86.13-.661-.136-1.192-.667-1.854-.531-.666-.797-1.062-.661-1.192 0-.266 0-.667-.401-1.198-.396-.532-.532-1.193-.662-1.99-.135-.797 0-1.193.13-1.594.136-.396.136-.791-.13-1.588-.265-.797-.401-1.328-.265-1.594 0-.396-.136-.927-.401-1.724-.396-.797-.532-1.193-.662-1.193-.135 0-.266-.265-.266-.666 0-.396-.13-.662-.265-.662h-.266c.136-.401.136-.927.266-1.328.135-.927 0-1.724-.266-2.385-.396-.667-.531-1.729-.661-3.188-.136-1.328-.401-2.255-.667-2.651-.396-.401-.531-.797-.531-1.198 0-.396-.13-.927-.531-1.458-.396-.662-.532-1.063-.266-1.458.135-.396.266-.662.135-.928-.135-.265-.135-.531-.135-1.197 0-.526-.13-1.058-.662-1.589-.401-.401-.666-.932-.531-1.464 0-.395 0-.927-.135-1.322-.266-.401-.266-1.063-.266-1.594 0-.531-.13-1.063-.396-1.328-.265-.266-.395-.662-.531-1.193 0-.531-.13-.797-.266-.927-.13-.136-.13-.401-.13-.797 0-.531-.135-.927-.531-1.458-.401-.532-.667-1.063-.667-1.464-.13-.396 0-.661.136-.661.13 0 .13 0 .13-.131 0-.135-.13-.135-.13-.265 0-.136-.136-.136-.136-.266 0 0 .136-.135.136-.265.13 0 .13-.136.13-.136h-.266c-.265 0-.395-.265-.395-.661 0-.401-.266-.927-.532-1.328-.401-.396-.531-.797-.401-1.193.136-.401 0-.662-.13-.662-.135-.135-.135-.401-.135-.796 0-.401 0-1.063-.131-1.99-.135-.932-.531-1.73-1.192-2.656-.667-.927-.797-1.594-.667-2.125.135-.526 0-1.193-.396-2.255-.401-1.058-.531-1.855-.531-2.521.13-.662 0-1.193-.401-1.459-.396-.265-.531-.927-.662-1.593 0-.662-.401-1.459-.932-2.386s-.797-1.593-.661-2.125c.13-.531-.136-1.057-.797-1.724-.662-.661-1.063-1.328-1.328-2.12-.266-.796-.532-1.062-.532-1.062h-.265c.135 0 .135 0 .265-.136.136-.13.136-.395.136-.796 0-.396-.266-.792-.531-1.058-.266-.265-.401-.53-.532-1.062-.135-.531-.265-.927-.531-1.063-.266-.13-.531-.53-.531-1.192-.136-.532-.401-1.193-.667-1.724-.396-.531-.526-1.198-.526-2.125s-.265-1.724-.797-2.39c-.531-.662-.797-1.194-.797-1.46 0-.265-.135-.395-.401-.53-.265-.13-.395-.266-.395-.532 0-.26-.266-.661-.797-1.323a7.376 7.376 0 0 1-1.198-2.255c-.266-.932-.662-1.463-1.058-1.86-.401-.395-.666-.796-.666-1.062 0-.265-.13-.661-.531-1.192-.396-.532-.532-.797-.662-.797-.135 0-.401-.396-.531-1.063-.136-.661-.531-1.057-.531-1.057h-.266c0-.136.13-.136.13-.266.136-.265 0-.4-.265-.666-.266-.13-.396-.396-.266-.797.135-.396-.266-.792-1.057-1.323-.797-.531-1.198-1.063-1.464-1.73-.13-.66-.396-1.057-.661-1.192-.266-.13-.401-.662-.401-1.328 0-.662-.396-1.323-1.329-2.12-.927-.667-1.458-1.458-1.588-2.125-.136-.661-1.063-1.589-2.391-2.786-1.463-1.193-2.125-1.855-1.995-1.99 0 0 0-.13.136-.266-.136 0-.266-.13-.396-.13-.266-.135-.401-.4-.531-.797-.136-.4-.266-.661-.531-.797-.266-.13-.532-.395-.667-.927-.266-.531-.531-.797-.797-.797s-.661-.4-1.062-.796c-.396-.532-.928-.927-1.589-1.193-.667-.266-1.198-.933-1.464-1.724-.395-.932-1.062-1.594-1.989-2.125-.932-.531-1.86-1.193-2.521-1.86-.667-.661-1.198-1.057-1.464-1.057h-.395v-.265c0-.136-.266-.401-.933-.532-.531-.265-1.323-.932-2.119-1.859-.933-1.063-1.86-1.724-2.792-2.255-.927-.532-1.724-1.063-2.12-1.459-.401-.4-.932-.797-1.729-.932-.797-.13-1.458-.396-1.99-.927-.661-.531-1.062-.661-1.328-.661-.265 0-.396-.136-.531-.266-.13-.266-.266-.266-.531-.266h-.532c0-.135.136-.265.136-.4.13-.261 0-.527-.266-.662-.265-.13-.932-.266-1.859-.266-.927 0-1.724-.13-1.99-.661-.401-.401-.932-.667-1.729-.797-.797-.136-1.328-.401-1.594-.662-.26-.265-.526-.4-.927-.53-.396-.136-.661-.266-1.062-.668-.396-.395-.927-.661-1.86-.796-.927-.13-1.588-.266-2.119-.526a2.915 2.915 0 0 1-1.063-.667c-.135-.266-.401-.396-.797-.266-.135 0-.401 0-.531.136 0-.136 0-.266.13-.266.136-.135-.13-.401-.396-.531-.265-.136-.796-.136-1.463-.136-.526.136-1.057 0-1.458-.265a2.238 2.238 0 0 0-1.329-.396c-.661 0-1.062-.13-1.458-.662-.401-.4-.932-.53-1.724-.53h-1.198V4.52c0-.13-.13-.266-.396-.266-.265-.13-1.062-.13-2.39 0-1.328 0-2.256-.13-2.657-.531-.531-.396-1.192-.662-2.39-.662-1.057 0-1.854-.13-2.12-.395-.266-.266-1.198-.532-2.792-.667-1.588-.13-2.385-.266-2.385-.396 0-.135-.135-.265-.531-.4-.401-.131-1.063 0-1.995.265-.531.135-1.057.265-1.458.4v-.265c0-.135-.266-.4-.928-.4-.531-.131-1.197 0-1.729.135-.531.13-.927.13-1.192-.136-.266-.266-.797-.396-1.459-.266-.401 0-.666.136-1.062.136l.13-.136c0-.13.135-.13.135-.13-.135 0-.265 0-.401.13-.265.136-.531 0-.661-.13-.136-.135-.667-.135-1.328 0-.667.13-1.193.13-1.86 0-.531-.135-1.192-.135-1.989.13-.797.266-1.729.402-2.521.266-.932-.13-1.464-.266-1.594-.396a1.013 1.013 0 0 0-.666-.265c-.266 0-1.193-.532-1.594-.266Zm-26.813 132.281c.266.136.401.266.532.401.401.266.932.927 1.458 1.99.667 1.057 1.062 1.724 1.463 2.12.396.401.532.531.532.666 0 .131.13.532.531 1.058.396.666 1.062 1.198 1.859 1.859a5.68 5.68 0 0 1 1.854 2.125c.402.797.933 1.193 1.329 1.458.401.131.666.396.932.797.266.396.396.662.531.662.266.135.266.135.266.401 0 .13.526.396 1.588.791 1.063.401 1.86.797 2.261 1.329.396.531 1.192 1.062 2.12 1.723.932.667 1.859.933 2.791 1.063.927.135 1.854.531 2.651 1.062.797.532 1.995.797 3.453.662 1.459-.13 2.256 0 2.521.266.401.265.797.401 1.464.401.661 0 1.062-.136 1.458-.266.396-.266.797-.266 1.328-.266s.927-.135 1.328-.531c.396-.401 1.193-.797 2.521-1.193 1.328-.531 2.255-.932 2.787-1.463.531-.531.932-1.057 1.198-1.589a3.123 3.123 0 0 1 1.062-1.198c.526-.265.792-.661 1.057-1.057.266-.531.401-.667.532-.667.135 0 .265-.265.265-.796.136-.532.266-.928.531-1.058.266-.135.532-.531.532-1.463.135-.792.265-1.193.401-1.193h.13c0-.13 0-.266-.13-.266-.136-.265 0-.395.13-.395.135 0 .266-.401.266-.797 0-.266.135-.401.135-.667.396.135.661.266 1.062.401.662.266 1.058.396 1.058.531v.266h.401c.265 0 .531.266.927.927.401.661.531.927.667.797.13-.136.395.13.796.531.396.396.928.662 1.459.662.531.135 1.458.401 2.521.796 1.062.396 2.656.532 4.645.396 2.125-.26 3.318-.396 3.849-.661a5.894 5.894 0 0 0 1.464-1.063c.531-.395 1.062-.797 1.859-1.057.662-.135 1.323 0 1.855.526.531.531.932 1.198 1.062 1.859.135.797.932 1.459 2.26 2.391 1.323.792 2.12 1.458 2.256 1.724.13.266.395.396.531.396.13 0 .531.135.661.531.266.401 1.328.797 3.318 1.458 1.995.667 3.453 1.063 4.115 1.063.797 0 1.328.135 1.593.266.266.135.667.395 1.329.395.531.136 1.062.266 1.197.401.266.266.927.396 2.12.532 1.198.13 2.391.13 3.719.13 1.328 0 2.125-.266 2.521-.531.401-.266.932-.662 1.859-.927.797-.266 1.459-.532 1.594-.662.13-.135.531-.401.797-.401.265 0 .531 0 .531.136 0 .13.13.13.13.265-.13 0-.13.13-.265.13-.131 0-.131.136-.266.136.135.13.135.265.266.265.135.131.265.131.265.266-.13.13-.13.26-.265.26-.131.136-.131.667 0 1.464.265.797.265 1.323.135 1.724-.135.531-.135.797.13 1.062.136.266.266.532.136 1.058-.136.531 0 .797.265.797.131 0 .131.135.266.135-.135.13-.135.266-.266.266-.135.13-.265.13-.265.265h.531v.396c-.135 0-.135-.13-.135-.13s-.131-.136-.266-.136c0 .136.135.402.135.532 0 .396-.135.797-.401 1.328-.396.531-.531.927-.531 1.193 0 .265.135.531.266.661l.265.266h-.396c0 .135.131.265.131.401.135.265 0 .396-.131.531-.135 0-.265.266-.265.661v.532l-.136-.136-.13-.13c0 .13.13.266.13.396.136.265.136.667 0 1.198-.13.531-.265.797-.531.927-.13 0-.13.135-.265.135.135.13.135.261.265.396.136.13.136.266.136.396h-.532c.131.401.131.932.131 1.328.135.927 0 1.859-.266 2.656-.396.792-.396 1.323-.266 1.589.266.266.136.667-.13 1.062-.266.401-.396 1.193-.531 2.125-.13.927-.266 1.589-.531 1.724-.131.131-.266.532-.266 1.459v1.192h-.531c.135.136.135.401.265.532 0 .265.136.401.136.531h-.401c0 .135.135.266.135.266 0 .135.13.135.13.265h-.265c-.131 0-.266.13-.396.531-.136.396-.136.532 0 .662.13.135.13.135.265.135-.265.13-.401.396-.531.532-.401.395-.666.796-.932 1.192-.266.396-.396 1.063-.396 1.724-.135.797 0 1.193.13 1.459.266.265.266.401.266.666v.396h.401c-.135.401-.266.797-.266 1.193-.135.797 0 1.729.532 2.521.531.932.796 1.463.531 1.729 0 .13-.136.265-.136.265h.797c0 .131-.13.131-.13.131 0 .13 0 .13-.135.265.135 0 .265.13.265.13s.136.136.266.136c-.13 0-.13.13-.266.13-.13 0-.265.135-.265.135.135.131.401.131.531.266.401.266.531.797.531 1.589.136.932.136 1.328.266 1.328.135 0 .265.135.265.531 0 .266 0 .401.131.531.135 0 .135 0 .135-.13.13 0 .13-.135.266-.135.13.395.265.796.396 1.062.265.797.666 1.328 1.062 1.859.401.396.667.928.667 1.459.13.396 0 .661-.136.797-.13 0-.13.13-.265.13.135 0 .401.135.531.135.135 0 .401 0 .531.131 0 .13-.13.265-.13.395 0 .136-.135.266-.135.401h.135c.13 0 .266.266.266.662.13.401.13.667.395.667.136.13.266.265.136.526-.136.265.13.796.531 1.197.526.396.662 1.063.662 1.724v1.063h.13c.135 0 .265.396.531 1.062.266.662.135 1.058 0 1.193l-.266.266h.266c.135 0 .266.396.401 1.062.13.792.396 1.459.927 2.12.531.797.797 1.859.932 3.188.131 1.458.266 2.119.396 2.119.136 0 .266.136.531.532.266.395.266 1.062.266 1.859 0 .792-.13 1.323-.266 1.458-.13.131-.13.396.266.662.266.265.401.797.531 1.724v1.995c-.13.395-.13.661-.265.661h-.13c0 .13.13.13.13.266.135.13 0 .927-.266 2.119-.266 1.198-.531 1.995-.531 2.125 0 .266.135.396.265.532.136.13.136.531 0 1.062-.13.531-.265 1.193-.13 1.854 0 .401 0 .797.13 1.063h-.395c0 .135.13.401.13.531.135.396 0 .531-.266.662-.265.135-.396.932-.531 2.26-.13 1.458-.396 2.385-.927 3.047-.531.666-.797 1.198-.932 1.594-.131.401 0 .661.135.796.13.131-.135.532-.531 1.063-.531.531-.797 1.062-.797 1.323v.531h-.531c.135.136.135.266.265.266.136.135.136.401.136.666v.396h-.401c0 .266.135.531.135.667.13.396 0 .927-.266 1.323-.265.401-.531.666-1.062.797a1.367 1.367 0 0 0-.797.661c-.135.136-.135.401-.135.531-.131 0-.131-.13-.266-.13l-.13-.135c0 .135.13.401.13.531.135.401 0 .531-.13.531-.266.136-.401.401-.401 1.063 0 .265-.13.531-.13.927-.136 0-.136-.13-.266-.13-.135-.136-.401.13-.667.661-.265.531-.526 1.193-.791 2.125-.136.927-.532 1.594-1.063 1.99-.266.265-.531.531-.797.661.13 0 .13.136.266.136.13 0 .265.13.265.13l-.666.666c-.396.396-.797.662-1.063.662h-.265c0 .13.135.266.135.266.13.13-.135.395-.667.661-.531.266-1.192 1.062-1.854 2.521-.666 1.463-1.198 2.125-1.593 2.255-.402.135-.532.401-.667.531 0 .266-.396.532-.797.532-.531.135-.661.401-.661.531v.401c-.136-.136-.136-.136-.266-.136s-.266-.13-.266-.265v.401c0 .26-.13.396-.396.526-.135 0-.265.135-.401.135 0 .13 0 .13.136.266.13.13-.266.396-.797.927-.531.401-.932.797-1.063 1.062-.135.266-.135.396-.401.396-.13 0-.395.136-.395.401-.136.266-.266.396-.401.396-.266 0-.396.136-.396.401 0 .266-.266.396-.532.531-.265.131-.661.396-1.192 1.058-.532.531-1.063.932-1.464 1.062-.531.136-.797.266-1.062.532-.266.265-.396.395-.662.395h-.265v.266c0 .266-.136.401-.401.401-.261 0-.662.396-1.323 1.063-.532.531-1.063.791-1.198.661-.131-.13-.532-.13-1.063.13-.531.266-.661.531-.661.667v.265c-.136 0-.266-.135-.266-.135-.135 0-.135-.13-.265-.13v.797h-.396c-.266 0-.797.396-1.594 1.323-.797.797-1.328 1.328-1.594 1.328-.265 0-.531.135-.932.401-.396.265-.531.396-.797.265-.13-.135-.26-.135-.26-.265v.265c0 .131-.136.266-.532.396-.401.13-.531.13-.797.13-.265-.13-.666.136-1.197.667-.532.531-1.063.797-1.193.531-.266-.135-.531-.135-1.063 0-.531.131-.661.266-.661.396 0 .136-.266.266-.797.531-.531.136-.932.396-1.063.662-.135.266-.265.401-.531.401-.265 0-.401.13-.401.266-.13.13-.265.395-.661.531-.401.13-.797.265-1.063.13-.13 0-.265 0-.396-.13v.531c-.135 0-.265 0-.401-.135-.265-.131-.531 0-.797.265-.265.266-.531.396-.796.266-.266 0-.532 0-.797.266-.13.13-.266.13-.396.265 0-.135-.136-.135-.136-.265 0-.136-.13-.266-.13-.266 0 .13-.135.266-.135.396 0 .265-.396.401-.927.265-.531-.13-.927 0-1.063.266-.13.266-.661.531-1.458.667-.797.13-1.198.396-1.198.531 0 .13-.13.266-.531.266-.396 0-.662.26-1.058.661-.401.396-1.197.531-2.526.531-1.192-.135-1.989 0-2.255.13-.135.136-.265.136-.396.266 0-.13-.135-.13-.135-.266 0-.13-.13-.13-.13-.13 0 .13-.136.396-.136.532 0 .13-.13.395-.13.531l-.265-.266c-.136 0-.136-.135-.136-.135 0 .135-.13.135-.13.135-.136.13-.266.266-.667.266h-.531v.396h-1.063c-.661 0-1.192.135-1.458.395-.396.266-.531.401-.797.266-.13-.13-.265-.13-.265-.266 0 .136-.131.266-.131.266-.135.135-.531.266-1.328.135-.797 0-1.463.131-1.994.396-.532.401-1.193.532-1.855.401-.797-.135-1.198 0-1.198.131-.13.265-.265.401-.531.401-.265 0-.797.13-1.328.13s-.792 0-1.057-.13c0-.136-.136-.136-.136-.136-.13.136-.13.136-.13.266-.135.135-.135.265-.265.265-.136-.13-.136-.13-.266-.265-.136 0-.266-.13-.266-.13v.265c0 .13-.531.396-1.859.792-1.198.401-1.859.401-1.99.266-.135-.131-.401-.266-.932-.266s-.927.135-1.328.266c-.396.135-.662.135-.662 0-.135-.131-.265-.131-.666 0-.396.135-.662.135-.662 0 0-.131-.135-.131-.135-.266-.13.135-.396.266-.526.266-.401.135-.932.265-1.729.135-.797 0-1.328 0-1.594.266-.266.13-.531.265-.927.13-.401-.13-.927-.13-1.724-.13-.401 0-.797.13-1.198.13v-.396h-.531v.531c-.266 0-.396-.135-.662-.135-.531-.13-.932-.13-1.328 0a1.808 1.808 0 0 1-1.193 0c-.401-.13-1.328-.13-2.791-.13-1.459.13-2.255 0-2.255-.136 0-.13-.131-.13-.131-.265 0 .135-.135.265-.135.265-.13.136-.531.401-1.458.401-.797 0-1.198 0-1.464-.135-.13-.13-.266-.13-.531 0-.13.135-.13.135-.266.265 0-.13.136-.13.136-.265l.13-.13c-.13 0-.266-.136-.396-.136-.266-.13-.396 0-.531.136 0 .13-.266.13-.532.13a.986.986 0 0 1-.661-.266c-.135-.265-.797-.265-1.859-.265-1.063 0-1.86.135-2.125.265-.266.136-.532.266-1.063.136-.531-.136-.797-.136-1.193 0-.135.13-.401.13-.531.13v-.13c0-.136-.797-.266-2.521-.532-1.729-.265-2.526-.401-2.526-.531v-.13h-2.916v-.401c-.136 0-.266.135-.401.135-.131 0-.266.13-.396.13v-.395c-.797 0-1.464.13-2.261.13-.791 0-1.588 0-2.255.135v-.531c-.13 0-.265 0-.396.13-.265.136-.531 0-.797-.265-.265-.131-1.062-.396-2.255-.396-1.328-.136-1.859-.136-1.859-.266 0-.135-.266-.266-.667-.401-.396-.13-.661-.266-.661-.396v-.13c-.136.13-.136.13-.266.13-.135.13-.135.13-.266.266 0-.136-.135-.266-.135-.266 0-.13-.13-.13-.13-.265 0 0-.136 0-.266.135-.135.13-.401 0-.661-.266-.266-.265-1.198-.401-2.526-.401-1.328 0-2.125-.13-2.255-.265-.136-.266-.532-.266-.928-.266h-.666v-.396h-.531c-.396 0-.662-.135-.797-.265-.131-.266-.532-.266-1.193-.266-.667 0-1.328-.266-2.125-.661-.797-.532-1.193-.667-1.328-.532 0 0-.13 0-.13.131 0-.131 0-.266.13-.266.135 0 .135-.13.135-.266-.135 0-.265.136-.401.136-.13 0-.265.13-.396.13 0-.13 0-.13-.135-.266-.13-.265-.266-.265-.662-.265h-.531c0-.131.13-.131.13-.131s0-.135.136-.265c-.932-.136-1.86-.401-2.787-.531-1.859-.396-2.921-.797-3.057-1.063-.13-.13-.13-.266-.26-.396 0 .13-.136.13-.266.266-.135.13-.531.13-1.198-.136-.661-.265-1.062-.395-1.062-.661 0-.135-.266-.266-.396-.266-.266 0-.401-.135-.401-.401 0-.26-.396-.526-1.063-.791-.661-.266-1.057-.401-1.057-.532 0-.135-.401-.265-1.328-.265-.797-.136-1.464-.266-1.73-.401-.265-.266-.395-.396-.395-.532 0-.26-.136-.395-.531-.395-.136 0-.401-.131-.532-.131.13 0 .13-.135.266-.135 0 0 .13 0 .266-.13 0-.136-.136-.136-.136-.136s0-.13-.13-.265c-.135.135-.266.135-.401.265-.13.136-.26.136-.396.136 0-.136-.13-.266-.13-.401 0-.266-.266-.396-.531-.266-.266.136-.667-.13-1.063-.396-.4-.265-.797-.531-1.328-.666-.531-.131-.932-.396-1.328-.792-.396-.401-.662-.797-1.063-1.063-.395-.265-.661-.401-.796-.265-.13 0-.13.13-.266.13-.13-.13-.13-.266-.266-.396-.13-.265-.531-.531-1.192-.797-.667-.265-1.329-.797-2.125-1.458-.797-.667-1.193-1.062-1.329-1.062-.13 0-.13.135-.265.135v-.266h-.396c-.266 0-.797-.265-1.73-.797-.926-.531-1.457-.932-1.457-1.062 0-.266-.266-.266-.532-.266-.265 0-.531-.265-.661-.661-.136-.531-.401-.797-.667-.797-.265-.135-.797-.401-1.458-1.198-.797-.792-1.198-1.458-1.459-1.99-.265-.531-.53-1.057-1.062-1.458-.531-.396-.797-.797-.932-1.062-.13-.266-.396-.532-.797-.797-.396-.261-.662-.526-.662-.662 0-.13.13-.265.13-.265h-.395c-.266 0-.401-.131-.532-.532 0-.13 0-.395-.135-.531-.13 0-.266.136-.396.136-.265.13-.531 0-.661-.136a1.8 1.8 0 0 1-.531-.927c-.266-.396-.402-.797-.797-1.062-.401-.131-.532-.662-.667-1.589 0-.797-.13-1.328-.266-1.463-.13 0-.265-.396-.265-.792-.13-.531-.266-.797-.532-.932-.13-.131-.265-.131-.395-.131.13-.135.13-.265.265-.265.13-.136.13-.136.266-.266-.136 0-.266 0-.401-.135-.266-.131-.396-.131-.396-.396 0-.136-.135-.401-.531-.531-.396-.131-.531-.396-.531-.662 0-.265-.266-.667-.662-1.062-.401-.532-.667-.927-.531-1.193 0-.401 0-.531-.266-.531s.396-.266.396-.532c0-.265-.13-.531-.266-.531-.13-.135-.265-.531-.265-1.062 0-.532.135-.797.265-.927.136 0 .136-.136.266-.136-.13 0-.266-.13-.396-.13-.266-.135-.4-.797-.531-1.99-.135-1.328-.401-2.255-.667-2.921-.265-.662-.396-1.193-.265-1.459 0-.13.135-.265.265-.396-.13 0-.265-.135-.265-.135-.13-.13-.266-.927-.266-2.521 0-1.594-.13-2.786-.531-3.448-.13-.401-.396-.666-.532-1.062.136 0 .266-.131.266-.131.136 0 .266-.135.266-.135-.13-.13-.13-.266-.266-.266-.13-.13-.266-.796-.266-1.724 0-.927.136-1.593.266-1.723.136-.136.136-.402 0-.667-.13-.13-.13-.396-.266-.531h.532v-.261c0-.135-.13-.401-.266-.401-.13 0-.13 0-.266-.13.136-.135.266-.401.401-.531.266-.401.396-.667.266-1.063 0-.135-.135-.396-.135-.531h.531a21.269 21.269 0 0 0-.396-1.458c-.266-1.063-.266-1.724 0-2.256.266-.531.396-1.198.396-2.125s.135-1.458.266-1.458c.135 0 .265-.135.265-.135 0-.131-.13-.261-.13-.396-.135-.266-.135-.531.13-.797.136-.13.266-.266.266-.396-.13 0-.266-.135-.266-.135-.265-.131-.13-.396.136-.927.265-.396.395-.927.395-1.459v-.797h.266c.136 0 .266-.265.401-.661.13-.401.13-.797 0-1.063 0-.135-.135-.401-.135-.531h.401v-1.989c0-1.329.265-2.256.661-2.922.401-.532.667-1.063.532-1.323 0-.136 0-.401-.13-.531.13 0 .265 0 .265.13.13 0 .266.135.266.135 0-.531 0-1.062-.136-1.463-.13-1.058 0-1.589.266-1.855.265-.265.396-.796.531-1.723.13-.933.266-1.329.531-1.464.266-.13.396-.396.266-.661 0-.396.13-.797.396-1.329.4-.661.531-.927.666-.927h.266c0-.135-.135-.265-.135-.401 0-.26 0-.526.265-.526.266-.135.266-.531.266-1.062-.13-.667 0-1.193.4-1.724.397-.531.532-.933.397-1.063-.13-.135.135-.531.666-1.062.526-.531.792-.927.662-1.328 0-.131-.136-.396-.136-.532h.532v-.661c0-.531.135-.797.265-.797.136 0 .266-.13.266-.396v-.265h.531c0-.136 0-.266-.13-.401-.135-.266 0-.396.13-.532.136-.13.266-.26.266-.526V192h.265c.266 0 .401-.401.532-1.062.135-.662.53-1.193 1.062-1.594.531-.396.797-.797.797-1.063 0-.265.135-.526.266-.526.135 0 .265-.135.265-.401v-.265c-.13 0-.13.135-.265.135 0 0-.13.13-.266.13v-1.594c0-1.057 0-1.724-.13-1.989-.136-.266-.136-.531.13-.531.266-.131.266-.396.266-.662-.13-.396-.13-.531-.266-.531h-.266c0-.13 0-.396.136-.531.13-.131.13-.396.13-.532h-.531c0-.13.135-.265.135-.395 0-.266 0-.532-.265-.662-.266-.135-.401-.266-.266-.531.13-.136-.135-.667-.531-1.328a3.602 3.602 0 0 1-.532-1.86c.13-.531 0-1.328-.265-2.119-.266-.797-.401-1.464-.401-1.99v-.797h.531c0-.135-.13-.266-.13-.401-.136-.266 0-.531.13-.661l.266-.266c-.13 0-.13 0-.266-.135-.13-.131-.13-.396-.13-.792 0-.531 0-.797-.136-.932-.13-.131-.13-.396 0-.532.136-.13.136-.265.266-.396h-.531v-.395c0-.266.135-.401.265-.532.136 0 .136-.135.266-.135-.13-.13-.266-.13-.266-.266-.265-.13-.265-.395-.265-1.062.135-.526 0-.792-.13-1.057-.136 0-.136-.136-.266-.136.13-.13.266-.13.266-.13.13-.135.265-.135.265-.266 0-.135-.135-.135-.265-.135 0-.13-.136-.13-.136-.266 0 0 .136 0 .136-.13.13-.135.265-.401.265-.927 0-.531.13-.797.266-1.063.13 0 .13-.135.265-.135-.135 0-.265-.13-.265-.13-.266-.136-.266-.266-.266-.531 0-.136 0-.401.13-.532h-.395c.13-.531.13-1.062.265-1.458.266-1.062.266-1.594 0-1.594-.135 0-.265 0-.265-.13.13-.135.13-.135.265-.135.13-.131.266-.131.266-.266-.136 0-.136-.13-.266-.13 0-.136-.135-.136-.265-.136l.265-.265c.13-.13.13-.531-.135-1.323-.266-.797-.266-1.464-.13-2.261.13-.791.13-1.192-.136-1.458-.266-.13-.13-.797.266-1.989.4-1.063.666-1.724.932-1.724.13 0 .266-.136.266-.136-.136 0-.136-.13-.266-.13-.135 0-.266-.396-.266-.927v-.797c.13.266.266.531.266.661.13.532.531.933 1.063 1.193.395.401.661.531.661.797v.266h1.062v.135c0 .13.266.396.928.662.53.265 1.062.531 1.463 1.062.396.396 1.063.531 1.724.531.662 0 1.459.13 1.86.532.395.395 1.593.796 3.453 1.192 1.854.531 2.786.797 2.916 1.063.136.265.266.396.667.531.396.13.797.266 1.458.396.662.135 1.063.135 1.193-.13.135-.266.531-.401 1.063-.401.53 0 .932-.131.932-.266v-.13c.927 0 1.86.13 2.786.13 1.86.135 3.052 0 3.318-.13.401-.266.797-.266 1.062-.266.266.13.662 0 1.063-.266.396-.265.661-.531.797-.666.13-.13.396-.396 1.193-.792.666-.401 1.328-.531 1.859-.401.531.136 1.062-.13 1.458-.396.531-.401.933-.531 1.328-.531.401-.135 1.198-.531 2.256-1.594 1.062-1.062 2.39-1.724 3.854-2.255 1.458-.531 2.521-1.328 3.317-2.521.662-1.062 1.329-1.724 1.724-1.724.401-.135.667-.135.667-.265 0-.131.266-.396.662-.532.395-.265 1.062-.927 1.989-1.989.401-.531.797-1.063 1.328-1.594.136.667.266 1.328.266 1.859.265 1.193.401 1.86.531 1.99.266.135.401.266.401.531.13.266.261.396.526.532.266.13.531.395.932 1.062.396.661.532.927.797.927.266 0 .396.266.797.927.396.667.662.932.927 1.063.266.135.797.531 1.724 1.458.933.797 1.86 1.464 2.922 1.594 1.063.13 1.724.396 1.99.661.265.266 1.593.401 4.12.266 2.52-.13 3.848-.13 4.38-.266.531-.13.797-.396 1.062-.661.261-.266.526-.531 1.058-.531.531 0 .932-.396 1.593-1.063.667-.661 1.198-.927 1.594-.927.401 0 .797-.266 1.328-.927.531-.531.927-.932 1.063-.932h.265v-.532h.396c.266 0 .531-.265.797-.661.266-.531.531-.797.667-.797.13 0 .395-.396.531-1.063.13-.661.266-1.057.531-1.057.13-.135.526-.401 1.057-1.062.532-.667.933-1.724 1.329-3.052.401-1.329.666-1.99 1.062-2.125.266-.131.401-.266.531-.532-.13-.661 0-.791 0-.927Zm42.745 39.011c-1.193.396-2.125.927-2.391 1.458a5.743 5.743 0 0 1-1.062 1.458c-.396.396-.531.532-.531.797v.266c-.13 0-.13-.136-.266-.136l-.13-.13v2.125h-.401c.135.13.135.261.265.396.136.266 0 .927-.265 1.859-.266.928-.396 1.99-.266 3.047 0 1.063.136 1.73.401 1.86.266.135.266.661 0 1.328-.135.797-.135 1.594.266 2.651.396 1.062.661 1.594.927 1.729.135.13.401.396.401.927s.13.797.266.797c.13 0 .395.266.531.661.266.532.531.662.661.532.136-.136.401 0 .797.265.396.266.662.532.927 1.063.266.531.667.661 1.328.927.667.135 1.198.266 1.73.135.531-.135.796-.135.927 0l.13.131c0-.131.135-.396.135-.532 0-.13.131-.396.131-.531.135.135.265.135.401.266.265.135.796-.131 1.593-.662.797-.531 1.193-1.062 1.328-1.458 0-.136.131-.401.131-.531.135 0 .265.13.265.13.136 0 .136 0 .266.135 0-.135-.13-.265-.13-.265 0-.136.13-.532.531-.933.396-.395.661-1.192.927-2.52a9.426 9.426 0 0 0 .13-3.318c-.13-1.057-.13-1.589 0-1.724.136-.13.266-.662.266-1.458.135-.797-.13-1.724-.662-2.521-.531-.797-.796-1.459-.661-1.86.13-.396 0-1.057-.135-1.724-.131-.797-.266-1.192-.396-1.323-.136-.135-.136-.265-.136-.531 0-.135.136-.265.136-.401h-.797v-.797h-.266c-.135 0-.531-.265-1.062-.797-.532-.526-1.063-.927-1.729-1.192-.662-.266-1.193-.396-1.724-.396-.662.265-1.594.396-2.787.797Zm-93.052 1.192c-.531.266-1.062.532-1.328.928-.266.401-.531.531-.667.401-.13 0-.13-.136-.265-.136 0 .136.135.136.135.266 0 .265-.266.531-.932.927a4.601 4.601 0 0 0-1.589 1.594c-.401.661-.531 1.192-.531 1.458s-.135.797-.401 1.463c-.266.662-.531 1.323-.531 1.724 0 .396-.131.662-.266.662-.13 0-.13.531.135 1.328.131.797.266 2.521.131 5.172 0 2.656.135 4.38.531 5.042.401.666.667 1.197.667 1.729 0 .526.13.791.395.927.266.13.532.661.933 1.458.396.927.526 1.458.791 1.724.266.266.667.531 1.464 1.063.661.395 1.458.531 2.255.531.797-.136 1.594-.266 2.391-.531.797-.266 1.192-.532 1.328-.662 0-.135 0-.135.13-.265.135 0 .266 0 .266.13.135 0 .265.135.265.135 0-.135-.13-.135-.13-.135 0-.13.266-.532.927-1.063.662-.526 1.063-.927 1.063-1.323 0-.401.396-1.062 1.062-2.255.797-1.198 1.193-1.729 1.328-1.729h.266c0-.13 0-.266-.135-.396-.131-.266 0-.531.135-.531.13-.13.13-.531.13-1.063-.13-.531-.265-.927-.396-1.057-.265-.266-.265-.797 0-1.594.266-.797.266-1.458 0-1.724-.265-.265-.531-2.125-.531-4.776 0-2.521-.135-3.849-.266-3.984-.135 0-.265-.396-.265-.792-.136-.531-.136-.666-.266-.666-.135 0-.265-.266-.531-.927-.266-.667-.531-1.193-1.063-1.86-.531-.531-1.593-1.062-3.187-1.328-1.724-.13-2.787-.13-3.448.135Zm59.734 43.651v.131c-.265 0-.531 0-.796-.131-.266 0-.532-.13-.797-.13v.396c-.136 0-.266-.135-.266-.135-.135-.131-.531 0-1.062.265-.532.266-1.459.401-2.657.266-1.328-.13-2.125 0-2.521.401-.395.396-.927.531-1.724.531-.796 0-1.593 0-2.526.266-.927.265-1.724.396-2.255.265-.661-.135-1.062 0-1.458.131-.401.135-1.063.265-1.99.265-.932 0-1.994.396-3.057 1.063-1.062.797-2.12 1.193-2.917 1.328-.797.13-1.729.526-2.656 1.057-.932.531-1.594.933-1.989 1.063-.402 0-.667.265-.933.531-.13.266-.396.396-.531.266-.13-.131-.531.265-1.063.796-.395.532-.796.797-.927.797 0 0-.135 0-.265-.135 0 .266 0 .401-.136.531-.13.401-.526.797-1.588 1.328-1.063.532-1.729.927-2.125 1.459-.401.395-.932.797-1.328.797-.532.13-.797.13-.797.265 0 .13-.266.266-.797.531-.531.266-.797.396-.927.662-.136.265-.266.401-.401.401h-.266v.396c0 .265-.265.531-.797.797-.531.265-1.192 1.062-1.989 2.52-.797 1.329-1.459 2.12-1.99 2.386a3.11 3.11 0 0 0-1.463 1.463c-.396.792-.532 1.589-.532 2.386 0 .797-.13 1.594-.395 2.125-.266.531-.396.927-.266 1.062 0 .131-.13.526-.662 1.323-.401.797-.796 2.391-1.062 4.776-.135 2.521-.135 4.115.266 4.912.395.797.661 1.192.796 1.458.266.135.266.266.266.531 0 .136.266 1.193.927 2.787.662 1.594 1.193 2.651 1.724 3.182.531.531.932.932 1.063 1.328.135.401.401.797 1.062 1.193.667.401.927.932 1.193 1.463.265.532.531.928.666 1.058.131 0 .131.135.266.135 0 .13-.135.13-.135.266 0 0 0 .13-.131.13.131 0 .131-.13.266-.13.13-.136.266 0 .396.13.135.266.266.266.531.266h.266v.265c0 .266.401.667 1.062 1.328.667.662 1.459 1.063 2.256 1.193.796.135 1.994.667 3.453 1.724 1.458 1.063 2.922 1.464 4.515 1.594 1.589.135 2.386.135 2.386.401.135.13.797.396 2.26.526 1.328.135 2.12.265 2.12.401.135.13.531.266 1.198.266.797.13 1.328.265 1.859.531.531.396 1.328.531 2.521.531 1.193 0 1.859-.135 1.99-.266.265-.265.401-.265.666-.135.266.135.927.135 2.12.135 1.063 0 1.995-.135 2.656-.401.667-.265 1.99-.395 4.115-.531 2.125-.13 3.318-.266 3.849-.531.531-.266.932-.526 1.463-.396.532.13.927 0 1.063-.13.266-.266.797-.266 1.854-.266a3.814 3.814 0 0 0 2.526-.531c.531-.401 1.328-.797 2.12-.797.797-.135 1.463-.266 1.859-.667.401-.395 1.198-.526 2.125-.791.927-.266 1.594-.532 1.86-.933.265-.395.927-.661 1.724-.661.796-.135 1.463-.266 1.859-.531.396-.266.661-.396.927-.266.135 0 .135.136.266.136 0-.136 0-.136-.131-.136-.135-.13 0-.396.266-.531.266-.266.531-.396.927-.531.401-.131.531-.266.531-.396 0-.136.136-.266.136-.266.13 0 .13.13.265.13.131 0 .131.136.266.136 0-.136-.135-.266-.135-.266s-.131-.135-.131-.265c.131 0 .266 0 .396-.136.266-.13.797-.526 1.464-1.323.661-.797 1.193-1.198 1.458-1.198.266 0 .531-.13.662-.526.135-.401.797-.797 1.593-1.463.933-.532 1.329-.927 1.329-1.058v-.265h.531c.396 0 .531-.136.531-.401.13-.266.396-.797 1.063-1.459.661-.661 1.062-1.062 1.062-1.328 0-.13.266-.531.797-.927.531-.401.927-.927 1.062-1.594.131-.661.526-1.062.927-1.458a3.149 3.149 0 0 0 1.063-1.193c.266-.531.531-1.198.531-1.859s.13-1.458.531-2.255c.396-.927.532-1.99.532-3.448-.136-1.464 0-2.656.265-3.583.266-.928.396-1.99.396-3.053v-1.723h-.396v-.266c0-.136-.135-.401-.531-.797-.401-.396-.531-1.062-.797-2.255-.135-1.063-.531-1.99-.932-2.521-.396-.531-.662-1.193-.797-1.724-.13-.667-.396-1.062-.927-1.458-.531-.401-.797-.933-1.193-1.594-.401-.797-.666-1.193-.932-1.193s-.661-.401-1.193-1.198c-.531-.797-1.062-1.192-1.724-1.323-.666-.135-1.328-.401-2.125-.932-.797-.396-1.328-.797-1.859-.927-.531-.135-.797-.266-.797-.401 0-.13-.266-.396-.661-.526-.532-.266-.797-.531-.933-.932-.13-.396-.531-.662-1.328-1.063-.661-.396-1.328-.526-1.724-.396-.531.136-.797 0-.797-.13-.13-.135-.531-.266-1.458-.531-.797-.266-1.594-.266-2.125-.266-.531.13-.932 0-1.328-.265-.396-.266-1.063-.401-1.99-.266-.932.13-2.125-.135-3.187-.531-1.063-.401-1.99-.532-2.521-.401-.531.135-1.063.135-1.464-.131a5.246 5.246 0 0 0-1.724-.265h-1.328c.401.135.401.135.401.265Zm22.563 31.709c.667.135.932.401.932.932s-.135.797-.401.927c-.265.136-.396.266-.531.662 0 .401-.396.797-1.193 1.328s-1.193 1.062-1.594 1.859c-.395.797-.796 1.193-1.192 1.589-.401.401-.667.666-.797 1.062-.136.401-.531.667-1.594 1.063-1.062.401-1.859.927-2.656 1.458-.662.531-1.063.932-1.063 1.063 0 .265-.13.401-.526.401-.401 0-.666.26-.932.526-.13.265-.531.401-1.062.531-.396.135-.797.265-.928.401-.135.13-.531.396-1.062.531-.531.13-.927.266-1.063.531-.13.261-.395.261-1.062.261-.662 0-1.458.265-2.125.797-.797.531-1.589.932-2.255 1.062-.662.136-1.328.136-1.86.136-.531 0-1.458.13-2.52.395-1.063.396-2.256.532-3.454.532-1.192 0-2.119.265-2.651.531-.531.396-3.187.266-7.833-.266-2.255-.265-4.516-.531-6.901-.927.13-.401.266-.666.396-1.062.265-.667.661-1.198 1.328-1.459.661-.265 1.062-.796 1.594-1.463.531-.662.797-1.057 1.062-1.057.266 0 .396-.136.396-.401v-.266c.135 0 .135.135.266.135.135.131.401-.135.666-.401.261-.265.526-.531.792-.531s.667-.13 1.198-.531c.531-.396.927-.792 1.328-1.193.396-.396.927-.661 1.724-.927.927-.266 1.328-.401 1.328-.531 0-.136.266-.266.662-.401a2.552 2.552 0 0 0 1.197-.662c.266-.265.532-.531.797-.396.131 0 .266.131.266.131v-.396h.531c.396 0 .526-.136.792-.266.266-.265.797-.265 1.729-.265.927 0 1.458-.136 1.594-.266.13-.136.265-.266.531-.136.13 0 .13.136.266.136v-.136c0-.13.13-.265.531-.265.396 0 .526-.13.526-.396v-.266h.266c.135 0 .401-.13.401-.265.13-.13.395-.266.927-.13.531.13.932 0 1.062-.266.266-.135.401-.266.667-.135.13 0 .13.135.266.135v-.401c0 .135.13.135.13.266.135.135.265.135.666.135.396 0 .792-.266 1.058-.531.265-.266.932-.532 1.859-.532.932 0 1.464-.135 1.594-.265.135-.13.531-.13 1.458 0 .932.13 1.594.13 2.125-.13.531-.266 1.063-.266 1.729-.136.662.136 1.193.136 1.459 0 .395-.265 1.062-.265 2.255-.265 1.062.135 1.989 0 2.656-.266.662-.266 1.328-.396 2.125-.531.797-.927 1.458-.927 2.12-.797Z"/></g></svg>