<svg width="112" height="24" viewBox="0 0 112 24" fill="none" xmlns="http://www.w3.org/2000/svg">
<path d="M105.809 17.9949C105.076 17.9949 104.376 17.8675 103.709 17.6126C103.042 17.3407 102.456 16.9329 101.949 16.3892C101.456 15.8454 101.062 15.1657 100.769 14.3501C100.476 13.5344 100.329 12.5744 100.329 11.4699C100.329 10.3654 100.476 9.40531 100.769 8.58968C101.062 7.77405 101.456 7.09435 101.949 6.5506C102.456 6.00684 103.042 5.60753 103.709 5.35264C104.376 5.08076 105.076 4.94482 105.809 4.94482C106.542 4.94482 107.229 5.08076 107.869 5.35264C108.522 5.62452 109.089 6.03233 109.569 6.57609C110.049 7.10285 110.429 7.77405 110.709 8.58968C110.989 9.40531 111.129 10.3654 111.129 11.4699C111.129 11.6568 111.129 11.7842 111.129 11.8522C111.129 11.9032 111.116 12.0136 111.089 12.1836H102.369C102.516 13.458 102.902 14.4095 103.529 15.0383C104.156 15.667 104.929 15.9728 105.849 15.9558C106.622 15.9389 107.296 15.7519 107.869 15.3951C108.456 15.0383 108.889 14.3841 109.169 13.4325L110.969 13.7383C110.782 14.503 110.516 15.1572 110.169 15.701C109.836 16.2447 109.442 16.6865 108.989 17.0264C108.536 17.3492 108.036 17.5956 107.489 17.7655C106.956 17.9185 106.396 17.9949 105.809 17.9949ZM105.849 6.90744C105.409 6.90744 104.969 7.01789 104.529 7.23879C104.089 7.4427 103.702 7.76555 103.369 8.20735C103.036 8.63216 102.769 9.17591 102.569 9.83861C102.382 10.5013 102.316 11.283 102.369 12.1836C102.449 11.8437 102.536 11.5718 102.629 11.3679C102.736 11.164 102.856 11.0111 102.989 10.9091C103.136 10.8072 103.296 10.7392 103.469 10.7052C103.656 10.6712 103.869 10.6542 104.109 10.6542H109.269C109.122 9.34583 108.742 8.40276 108.129 7.82502C107.529 7.23029 106.769 6.92443 105.849 6.90744Z" fill="black"/>
<path d="M91.6627 13.7384C91.756 14.6051 92.056 15.2083 92.5627 15.5481C93.0694 15.871 93.7694 16.0324 94.6627 16.0324C95.6227 16.0324 96.3494 15.854 96.8427 15.4972C97.336 15.1403 97.5827 14.5456 97.5827 13.713C97.5827 13.3051 97.3894 13.0163 97.0027 12.8463C96.6294 12.6764 96.1627 12.549 95.6027 12.464C95.0427 12.3621 94.4294 12.2686 93.7627 12.1836C93.096 12.0817 92.4827 11.9203 91.9227 11.6994C91.3627 11.4785 90.8894 11.1471 90.5027 10.7053C90.1294 10.2635 89.9427 9.65179 89.9427 8.87015C89.9427 8.25842 90.0294 7.74016 90.2027 7.31535C90.3894 6.87355 90.6227 6.50821 90.9027 6.21935C91.1827 5.93048 91.496 5.70108 91.8427 5.53116C92.2027 5.34424 92.556 5.2083 92.9027 5.12334C93.2494 5.03838 93.5827 4.9874 93.9027 4.97041C94.2227 4.93643 94.4827 4.91943 94.6827 4.91943C95.0694 4.91943 95.5094 4.97041 96.0027 5.07236C96.5094 5.15733 96.9894 5.32725 97.4427 5.58213C97.9094 5.83702 98.3094 6.18536 98.6427 6.62716C98.9894 7.06896 99.2027 7.6467 99.2827 8.36038L97.5027 8.69173C97.396 7.97805 97.1094 7.50227 96.6427 7.26437C96.1894 7.00949 95.5227 6.88205 94.6427 6.88205C93.736 6.88205 93.0494 7.02648 92.5827 7.31535C92.1294 7.60422 91.9027 8.14797 91.9027 8.94661C91.9027 9.35443 92.0894 9.65179 92.4627 9.83871C92.8494 10.0086 93.3227 10.1446 93.8827 10.2465C94.4427 10.3485 95.056 10.4419 95.7227 10.5269C96.3894 10.6119 97.0027 10.7648 97.5627 10.9857C98.1227 11.2066 98.5894 11.5294 98.9627 11.9543C99.3494 12.3791 99.5427 12.9823 99.5427 13.7639C99.5427 14.7325 99.3427 15.5056 98.9427 16.0834C98.556 16.6441 98.0894 17.0689 97.5427 17.3578C97.0094 17.6297 96.4694 17.7996 95.9227 17.8676C95.376 17.9525 94.9427 17.995 94.6227 17.995C94.436 17.995 94.1894 17.978 93.8827 17.944C93.576 17.9101 93.2494 17.8506 92.9027 17.7656C92.556 17.6637 92.2027 17.5277 91.8427 17.3578C91.496 17.1879 91.1694 16.9585 90.8627 16.6696C90.5694 16.3808 90.3227 16.0324 90.1227 15.6246C89.9227 15.2168 89.8027 14.7325 89.7627 14.1718L91.6627 13.7384Z" fill="black"/>
<path d="M82.5781 8.51311C82.5781 7.35763 82.7915 6.49952 83.2181 5.93878C83.6448 5.37803 84.3181 5.09766 85.2381 5.09766H89.2581V7.44259L85.8781 7.46808C85.5981 7.46808 85.3715 7.48508 85.1981 7.51906C85.0248 7.55305 84.8848 7.63801 84.7781 7.77395C84.6848 7.89289 84.6181 8.07981 84.5781 8.33469C84.5515 8.58958 84.5381 8.93792 84.5381 9.37972V17.8419H82.5781V8.51311Z" fill="black"/>
<path d="M76.0825 17.9949C75.3492 17.9949 74.6492 17.8675 73.9825 17.6126C73.3159 17.3407 72.7292 16.9329 72.2225 16.3892C71.7292 15.8454 71.3359 15.1657 71.0425 14.3501C70.7492 13.5344 70.6025 12.5744 70.6025 11.4699C70.6025 10.3654 70.7492 9.40531 71.0425 8.58968C71.3359 7.77405 71.7292 7.09435 72.2225 6.5506C72.7292 6.00684 73.3159 5.60753 73.9825 5.35264C74.6492 5.08076 75.3492 4.94482 76.0825 4.94482C76.8159 4.94482 77.5025 5.08076 78.1425 5.35264C78.7959 5.62452 79.3625 6.03233 79.8425 6.57609C80.3225 7.10285 80.7025 7.77405 80.9825 8.58968C81.2625 9.40531 81.4025 10.3654 81.4025 11.4699C81.4025 11.6568 81.4025 11.7842 81.4025 11.8522C81.4025 11.9032 81.3892 12.0136 81.3625 12.1836H72.6425C72.7892 13.458 73.1759 14.4095 73.8025 15.0383C74.4292 15.667 75.2025 15.9728 76.1225 15.9558C76.8959 15.9389 77.5692 15.7519 78.1425 15.3951C78.7292 15.0383 79.1625 14.3841 79.4425 13.4325L81.2425 13.7383C81.0559 14.503 80.7892 15.1572 80.4425 15.701C80.1092 16.2447 79.7159 16.6865 79.2625 17.0264C78.8092 17.3492 78.3092 17.5956 77.7625 17.7655C77.2292 17.9185 76.6692 17.9949 76.0825 17.9949ZM76.1225 6.90744C75.6825 6.90744 75.2425 7.01789 74.8025 7.23879C74.3625 7.4427 73.9759 7.76555 73.6425 8.20735C73.3092 8.63216 73.0425 9.17591 72.8425 9.83861C72.6559 10.5013 72.5892 11.283 72.6425 12.1836C72.7225 11.8437 72.8092 11.5718 72.9025 11.3679C73.0092 11.164 73.1292 11.0111 73.2625 10.9091C73.4092 10.8072 73.5692 10.7392 73.7425 10.7052C73.9292 10.6712 74.1425 10.6542 74.3825 10.6542H79.5425C79.3959 9.34583 79.0159 8.40276 78.4025 7.82502C77.8025 7.23029 77.0425 6.92443 76.1225 6.90744Z" fill="black"/>
<path d="M60.2891 5.09766H62.4091L65.2691 14.8343C65.3491 15.1231 65.4091 15.4375 65.4491 15.7773C65.4891 16.1172 65.5157 16.4315 65.5291 16.7204H65.5691C65.5557 16.4315 65.5691 16.1172 65.6091 15.7773C65.6624 15.4375 65.7224 15.1231 65.7891 14.8343L68.5891 5.09766H70.6691L66.9291 17.8419H64.0291L60.2891 5.09766Z" fill="black"/>
<path d="M54.8911 17.9949C54.1578 17.9949 53.4578 17.8675 52.7911 17.6126C52.1245 17.3407 51.5378 16.9329 51.0311 16.3892C50.5378 15.8454 50.1445 15.1657 49.8511 14.3501C49.5578 13.5344 49.4111 12.5744 49.4111 11.4699C49.4111 10.3654 49.5578 9.40531 49.8511 8.58968C50.1445 7.77405 50.5378 7.09435 51.0311 6.5506C51.5378 6.00684 52.1245 5.60753 52.7911 5.35264C53.4578 5.08076 54.1578 4.94482 54.8911 4.94482C55.6245 4.94482 56.3111 5.08076 56.9511 5.35264C57.6045 5.62452 58.1711 6.03233 58.6511 6.57609C59.1311 7.10285 59.5111 7.77405 59.7911 8.58968C60.0711 9.40531 60.2111 10.3654 60.2111 11.4699C60.2111 11.6568 60.2111 11.7842 60.2111 11.8522C60.2111 11.9032 60.1978 12.0136 60.1711 12.1836H51.4511C51.5978 13.458 51.9845 14.4095 52.6111 15.0383C53.2378 15.667 54.0111 15.9728 54.9311 15.9558C55.7045 15.9389 56.3778 15.7519 56.9511 15.3951C57.5378 15.0383 57.9711 14.3841 58.2511 13.4325L60.0511 13.7383C59.8645 14.503 59.5978 15.1572 59.2511 15.701C58.9178 16.2447 58.5245 16.6865 58.0711 17.0264C57.6178 17.3492 57.1178 17.5956 56.5711 17.7655C56.0378 17.9185 55.4778 17.9949 54.8911 17.9949ZM54.9311 6.90744C54.4911 6.90744 54.0511 7.01789 53.6111 7.23879C53.1711 7.4427 52.7845 7.76555 52.4511 8.20735C52.1178 8.63216 51.8511 9.17591 51.6511 9.83861C51.4645 10.5013 51.3978 11.283 51.4511 12.1836C51.5311 11.8437 51.6178 11.5718 51.7111 11.3679C51.8178 11.164 51.9378 11.0111 52.0711 10.9091C52.2178 10.8072 52.3778 10.7392 52.5511 10.7052C52.7378 10.6712 52.9511 10.6542 53.1911 10.6542H58.3511C58.2045 9.34583 57.8245 8.40276 57.2111 7.82502C56.6111 7.23029 55.8511 6.92443 54.9311 6.90744Z" fill="black"/>
<path d="M39.6016 5.09766H41.7016L44.2816 13.4579C44.3749 13.7298 44.4416 14.0356 44.4816 14.3755C44.5216 14.7153 44.5416 15.0297 44.5416 15.3185H44.5816C44.5816 15.0297 44.6016 14.7153 44.6416 14.3755C44.6949 14.0356 44.7682 13.7298 44.8616 13.4579L47.4616 5.09766H49.5616L44.9816 19.6516C44.7816 20.3653 44.5349 20.9515 44.2416 21.4103C43.9482 21.8691 43.6416 22.2344 43.3216 22.5063C43.0016 22.7782 42.6749 22.9651 42.3416 23.067C42.0216 23.169 41.7216 23.22 41.4416 23.22H39.6616V21.2064H40.6816C40.8016 21.2064 40.9682 21.1809 41.1816 21.1299C41.3949 21.0789 41.6149 20.9855 41.8416 20.8495C42.0682 20.7136 42.2816 20.5267 42.4816 20.2888C42.6949 20.0679 42.8482 19.779 42.9416 19.4222L43.4616 17.3831L39.6016 5.09766Z" fill="black"/>
<path d="M29.0244 0H30.9844V7.31519C30.9844 7.60406 30.9644 7.91842 30.9244 8.25827C30.8844 8.59811 30.8311 8.91247 30.7644 9.20134L30.8044 9.22683C30.8711 8.93796 30.9444 8.6321 31.0244 8.30924C31.1044 7.9694 31.2111 7.68053 31.3444 7.44264C31.7977 6.54204 32.3711 5.89634 33.0644 5.50551C33.7711 5.0977 34.5044 4.89379 35.2644 4.89379C35.9311 4.89379 36.5044 5.06371 36.9844 5.40356C37.4777 5.7434 37.8844 6.2022 38.2044 6.77994C38.5377 7.34068 38.7844 8.00338 38.9444 8.76804C39.1044 9.5157 39.1844 10.3058 39.1844 11.1385V17.8419H37.2244V11.1385C37.2244 9.949 37.0044 8.99743 36.5644 8.28375C36.1377 7.55309 35.5044 7.18775 34.6644 7.18775C34.3977 7.18775 34.0577 7.27271 33.6444 7.44264C33.2311 7.59557 32.8244 7.89293 32.4244 8.33473C32.0377 8.75954 31.6977 9.35427 31.4044 10.1189C31.1244 10.8836 30.9844 11.8691 30.9844 13.0756V17.8419H29.0244V0Z" fill="black"/>
<path d="M18.5742 5.09795H20.5342V7.72326C20.5342 7.97815 20.5142 8.26702 20.4742 8.58987C20.4476 8.89573 20.4142 9.17611 20.3742 9.43099L20.4142 9.45648C20.4542 9.20159 20.5009 8.92122 20.5542 8.61536C20.6209 8.3095 20.7076 8.03762 20.8142 7.79973C21.2276 6.78019 21.7609 6.04102 22.4142 5.58223C23.0676 5.12344 23.7342 4.89404 24.4142 4.89404C25.0409 4.89404 25.5676 5.07246 25.9942 5.4293C26.4342 5.78614 26.7809 6.26192 27.0342 6.85665C27.3009 7.45139 27.4876 8.13958 27.5942 8.92122C27.7142 9.68588 27.7742 10.493 27.7742 11.3426V17.8422H25.8142V11.3426C25.8142 10.1192 25.6409 9.15911 25.2942 8.46243C24.9476 7.74875 24.4342 7.39191 23.7542 7.39191C23.5009 7.39191 23.1876 7.46838 22.8142 7.62131C22.4542 7.75725 22.1009 8.03762 21.7542 8.46243C21.4209 8.87024 21.1342 9.44798 20.8942 10.1956C20.6542 10.9263 20.5342 11.8864 20.5342 13.0758V17.8422H18.5742V5.09795Z" fill="black"/>
<path d="M17.3716 2.16652V0H15.3516V2.16652H17.3716ZM15.3916 5.0977H17.3316V17.8419H15.3916V5.0977Z" fill="black"/>
<path d="M2.1 0L6.94 14.4775C6.98 14.6134 7.00667 14.7663 7.02 14.9362C7.04667 15.0892 7.06 15.2336 7.06 15.3696H7.1C7.1 15.2336 7.10667 15.0892 7.12 14.9362C7.14667 14.7663 7.18 14.6134 7.22 14.4775L12.06 0H14.16V17.8419H12.2V6.90738C12.2 6.39761 12.2267 5.83686 12.28 5.22514C12.3467 4.59642 12.42 4.02718 12.5 3.51741H12.46C12.38 4.01019 12.2667 4.55394 12.12 5.14867C11.9733 5.7434 11.82 6.27866 11.66 6.75445L8.06 17.8419H6.1L2.5 6.75445C2.34 6.27866 2.18667 5.7434 2.04 5.14867C1.89333 4.55394 1.78 4.01019 1.7 3.51741H1.66C1.74 4.02718 1.80667 4.59642 1.86 5.22514C1.92667 5.83686 1.96 6.39761 1.96 6.90738V17.8419H0V0H2.1Z" fill="black"/>
</svg>
